<svg width="179" height="179" viewBox="0 0 179 179" fill="none" xmlns="http://www.w3.org/2000/svg">
<g clip-path="url(#clip0_36_83)">
<path d="M89.3906 11.4718C104.801 11.4718 119.866 16.0417 132.68 24.6035C145.494 33.1653 155.481 45.3346 161.378 59.5724C167.276 73.8103 168.819 89.4771 165.812 104.592C162.806 119.707 155.385 133.591 144.488 144.488C133.59 155.385 119.707 162.806 104.592 165.812C89.477 168.819 73.8101 167.276 59.5723 161.378C45.3345 155.481 33.1652 145.494 24.6034 132.68C16.0415 119.866 11.4717 104.802 11.4717 89.3907C11.4717 68.7253 19.681 48.9064 34.2936 34.2937C48.9062 19.6811 68.7252 11.4718 89.3906 11.4718Z" stroke="white" stroke-width="2.38375" stroke-miterlimit="2.61"/>
<path d="M129.378 85.1238C128.976 85.1238 128.583 85.243 128.249 85.4663C127.915 85.6896 127.654 86.007 127.5 86.3783C127.347 86.7496 127.306 87.1582 127.385 87.5524C127.463 87.9466 127.657 88.3087 127.941 88.5929C128.225 88.8771 128.587 89.0706 128.981 89.149C129.376 89.2275 129.784 89.1872 130.156 89.0334C130.527 88.8796 130.844 88.6191 131.068 88.285C131.291 87.9508 131.41 87.5579 131.41 87.1559C131.41 86.617 131.196 86.1001 130.815 85.719C130.434 85.3379 129.917 85.1238 129.378 85.1238ZM129.014 87.3169C128.896 87.3169 128.781 87.2819 128.683 87.2164C128.585 87.1509 128.509 87.0579 128.464 86.949C128.419 86.8401 128.407 86.7202 128.43 86.6046C128.453 86.489 128.51 86.3829 128.593 86.2995C128.676 86.2162 128.782 86.1594 128.898 86.1364C129.014 86.1134 129.133 86.1252 129.242 86.1703C129.351 86.2154 129.444 86.2918 129.51 86.3898C129.575 86.4878 129.61 86.603 129.61 86.7209C129.61 86.879 129.547 87.0305 129.436 87.1423C129.324 87.2541 129.172 87.3169 129.014 87.3169Z" fill="white"/>
<path d="M49.3735 85.1774C48.9715 85.1774 48.5786 85.2966 48.2445 85.5199C47.9103 85.7432 47.6498 86.0606 47.496 86.4319C47.3422 86.8032 47.3019 87.2118 47.3804 87.606C47.4588 88.0002 47.6523 88.3623 47.9365 88.6465C48.2207 88.9307 48.5828 89.1243 48.977 89.2027C49.3712 89.2811 49.7798 89.2408 50.1511 89.087C50.5225 88.9332 50.8398 88.6728 51.0631 88.3386C51.2864 88.0044 51.4056 87.6115 51.4056 87.2096C51.4056 86.6706 51.1915 86.1537 50.8104 85.7726C50.4293 85.3915 49.9124 85.1774 49.3735 85.1774ZM49.7668 87.3168C49.6489 87.3168 49.5337 87.2819 49.4357 87.2164C49.3377 87.1509 49.2613 87.0579 49.2162 86.949C49.1711 86.8401 49.1593 86.7202 49.1823 86.6046C49.2053 86.489 49.262 86.3829 49.3454 86.2995C49.4287 86.2162 49.5349 86.1594 49.6505 86.1364C49.7661 86.1134 49.8859 86.1252 49.9948 86.1703C50.1037 86.2154 50.1968 86.2918 50.2623 86.3898C50.3278 86.4878 50.3627 86.603 50.3627 86.7209C50.3627 86.879 50.2999 87.0305 50.1882 87.1423C50.0764 87.2541 49.9248 87.3168 49.7668 87.3168Z" fill="white"/>
<path d="M89.3908 18.6767C70.6372 18.6815 52.653 26.133 39.3916 39.3932C26.1302 52.6535 18.6772 70.6371 18.6709 89.3907C18.6772 108.144 26.1302 126.128 39.3916 139.388C52.653 152.648 70.6372 160.1 89.3908 160.105C108.144 160.1 126.129 152.648 139.39 139.388C152.651 126.128 160.105 108.144 160.111 89.3907C160.105 70.6371 152.651 52.6535 139.39 39.3932C126.129 26.133 108.144 18.6815 89.3908 18.6767ZM89.3908 17.7411C98.8 17.7411 108.117 19.5944 116.81 23.1951C125.503 26.7958 133.401 32.0735 140.055 38.7268C146.708 45.3801 151.986 53.2787 155.586 61.9716C159.187 70.6645 161.04 79.9816 161.04 89.3907C161.042 98.8003 159.19 108.118 155.59 116.812C151.989 125.505 146.712 133.405 140.058 140.058C133.405 146.712 125.505 151.989 116.812 155.59C108.118 159.19 98.8005 161.042 89.3908 161.04C70.3882 161.04 52.1638 153.492 38.7269 140.055C25.29 126.618 17.7412 108.393 17.7412 89.3907C17.7444 70.389 25.2942 52.1665 38.7304 38.7303C52.1666 25.294 70.3891 17.7442 89.3908 17.7411Z" fill="white"/>
<path d="M49.1231 39.8802C37.2051 49.5838 29.179 63.2539 26.5132 78.3897" stroke="white" stroke-width="3.57563" stroke-miterlimit="2.61"/>
<path d="M85.1239 25.6611C75.5888 26.4775 64.5819 29.7016 56.3281 34.8028" stroke="white" stroke-width="3.57563" stroke-miterlimit="2.61"/>
<path d="M102.501 26.9126C99.9711 26.3883 97.412 26.0162 94.8374 25.7982" stroke="white" stroke-width="3.57563" stroke-miterlimit="2.61"/>
<path d="M152.918 84.4325C151.974 72.4646 147.68 61.0042 140.527 51.3629C133.374 41.7216 123.651 34.2891 112.471 29.9161" stroke="white" stroke-width="3.57563" stroke-miterlimit="2.61"/>
<path d="M89.3908 17.7411C98.8 17.7411 108.117 19.5944 116.81 23.1951C125.503 26.7958 133.402 32.0735 140.055 38.7268C146.708 45.3801 151.986 53.2787 155.586 61.9716C159.187 70.6645 161.04 79.9816 161.04 89.3907C161.042 98.8003 159.19 108.118 155.59 116.812C151.989 125.505 146.712 133.405 140.058 140.058C133.405 146.712 125.505 151.989 116.812 155.59C108.118 159.19 98.8004 161.042 89.3908 161.04C70.3882 161.04 52.1638 153.492 38.7269 140.055C25.29 126.618 17.7412 108.393 17.7412 89.3907C17.7444 70.389 25.2942 52.1665 38.7304 38.7303C52.1666 25.294 70.3891 17.7442 89.3908 17.7411Z" stroke="white" stroke-width="0.297969" stroke-miterlimit="2.61"/>
<path d="M50.2436 131.607L52.6333 134.903L56.501 133.645L54.1113 136.935L56.501 140.224L52.6333 138.961L50.2436 142.256V138.186L46.376 136.935L50.2436 135.677V131.607Z" fill="white"/>
<path d="M127.865 132.28L125.481 135.576L121.613 134.313L123.997 137.608L121.613 140.892L125.481 139.64L127.865 142.93V138.865L131.738 137.608L127.865 136.345V132.28Z" fill="white"/>
<path d="M90.0404 47.8717H88.7412V86.2442H90.0404V47.8717Z" fill="white"/>
<path d="M80.9106 45.9647C81.2316 46.8321 81.3892 47.7514 81.3755 48.6762C81.3802 49.31 81.3102 49.942 81.1669 50.5594C83.5035 49.979 85.9226 49.8056 88.3181 50.0469L86.2323 45.4999C85.2312 45.4999 84.2658 45.5416 83.342 45.631C82.4183 45.7204 81.6913 45.8217 80.8987 45.9647M79.1109 51.1255C79.0286 50.2938 78.7901 49.485 78.4077 48.7418C78.0671 48.0777 77.6202 47.4738 77.0847 46.954C74.4677 47.8374 72.0297 49.1815 69.8858 50.9229L69.5401 51.2149L69.2124 51.501C68.6782 51.9728 68.1709 52.4742 67.6927 53.0027C64.8978 55.6487 61.4354 57.2577 58.2888 58.7178C56.4208 59.5033 54.626 60.4526 52.9254 61.5544C54.6111 60.9654 56.3463 60.5287 58.11 60.2493C61.4652 59.6534 64.9574 58.9979 69.3673 55.6547L69.4269 55.6189C72.4899 53.7806 75.7403 52.2743 79.1228 51.1255M77.9667 46.6739C78.4281 47.1987 78.8188 47.7817 79.1288 48.408C79.5336 49.1832 79.8036 50.0215 79.9273 50.8871L80.2491 50.7978C80.4689 50.1123 80.5775 49.396 80.5709 48.6762C80.5817 47.8023 80.4175 46.9351 80.0882 46.1256C79.3552 46.2865 78.6461 46.4653 77.9667 46.6739ZM86.4111 44.6954H86.5184L86.876 44.9278L89.3551 50.3329L89.4027 50.5832C89.3954 50.6345 89.3781 50.6839 89.3516 50.7285C89.3252 50.7731 89.2902 50.812 89.2486 50.843C89.2071 50.874 89.1599 50.8965 89.1096 50.9092C89.0593 50.9219 89.0071 50.9245 88.9558 50.9169C85.7478 50.4902 82.4846 50.8104 79.4208 51.8526C76.0767 52.9824 72.864 54.4689 69.8381 56.2863C65.303 59.7309 61.6976 60.4102 58.259 61.0539C55.8455 61.5068 53.4915 61.9418 51.0124 63.3542H50.5774L50.5059 62.794C52.0613 60.7797 54.8443 59.4865 57.9372 58.0265C61.0301 56.5664 64.4389 55.017 67.1325 52.4545C67.6093 51.936 68.1277 51.4175 68.6939 50.911L69.0336 50.613L69.3911 50.315C72.5875 47.7406 76.3742 46.0018 80.41 45.2555C81.3218 45.0768 82.2813 44.9397 83.2825 44.8443C84.2836 44.749 85.3146 44.6954 86.4111 44.6954Z" fill="white"/>
<path d="M69.1287 51.0659C69.1567 51.6354 69.2425 52.2004 69.385 52.7524C69.6082 53.7145 70.0215 54.6223 70.6007 55.4223L71.3337 55.023C70.7685 54.2972 70.3624 53.4607 70.1418 52.5677C69.9578 51.8583 69.8894 51.1238 69.9392 50.3925L69.6353 50.6369L69.1108 51.0838" fill="white"/>
<path d="M67.4305 52.7167C67.5292 53.1225 67.6566 53.5208 67.8119 53.9086C68.1469 54.7746 68.6399 55.5708 69.266 56.2566L69.6116 55.9943L69.9692 55.7917C69.3437 55.1589 68.8548 54.4044 68.533 53.5748C68.3267 53.0688 68.1788 52.541 68.092 52.0016C67.8536 52.2399 67.6271 52.4783 67.4126 52.7167" fill="white"/>
<path d="M57.7167 60.4698L89.3193 73.5566L89.063 74.1883L57.4604 61.1015L57.7167 60.4698Z" fill="white"/>
<path d="M56.9835 59.0813L57.5854 60.7857L51.9121 62.21L52.6689 61.1313L56.9835 59.0813Z" fill="white"/>
<path d="M97.8711 45.9647C97.5552 46.8333 97.3997 47.752 97.4123 48.6762C97.4087 49.3096 97.4766 49.9413 97.6149 50.5594C95.2783 49.979 92.8591 49.8056 90.4636 50.0469L92.5554 45.4999C93.5506 45.4999 94.51 45.5416 95.4397 45.631C96.28 45.7084 97.0904 45.8217 97.883 45.9647M99.6709 51.1255C99.753 50.293 99.9937 49.4838 100.38 48.7418C100.717 48.0768 101.162 47.4725 101.697 46.954C104.314 47.8374 106.752 49.1815 108.896 50.9229L109.242 51.2149L109.569 51.501C110.13 52.0016 110.636 52.5081 111.089 53.0027C113.878 55.6487 117.34 57.2577 120.487 58.7178C122.354 59.5063 124.148 60.4554 125.85 61.5544C124.163 60.9654 122.425 60.5286 120.66 60.2493C117.317 59.6534 113.824 58.9979 109.414 55.6547L109.355 55.6189C106.292 53.7806 103.041 52.2743 99.6589 51.1255M100.815 46.6739C100.345 47.1985 99.9446 47.7814 99.6232 48.408C99.2253 49.1856 98.9575 50.023 98.8306 50.8871L98.5088 50.7978C98.289 50.1123 98.1804 49.396 98.187 48.6762C98.1762 47.8023 98.3404 46.9351 98.6697 46.1256C99.4086 46.2865 100.112 46.4653 100.791 46.6739M92.3706 44.6954H92.2693L91.9058 44.9278L89.4267 50.3329L89.373 50.5832C89.3892 50.6874 89.4459 50.7809 89.5307 50.8434C89.6156 50.9059 89.7217 50.9324 89.826 50.9169C93.0339 50.4902 96.2971 50.8104 99.361 51.8526C102.705 52.9835 105.917 54.47 108.944 56.2863C113.479 59.7309 117.084 60.4102 120.523 61.0539C122.942 61.5068 125.29 61.9418 127.769 63.3542H128.204L128.282 62.794C126.72 60.7797 123.937 59.4865 120.845 58.0265C117.752 56.5664 114.343 55.017 111.649 52.4425C111.172 51.9241 110.654 51.4056 110.094 50.8991L109.748 50.6011L109.391 50.3031C106.194 47.7287 102.408 45.9899 98.3717 45.2436C97.4599 45.0648 96.5005 44.9278 95.4993 44.8324C94.4981 44.7371 93.4671 44.6954 92.3706 44.6954Z" fill="white"/>
<path d="M109.653 51.0659C109.625 51.6354 109.539 52.2004 109.396 52.7524C109.173 53.7145 108.76 54.6223 108.181 55.4223L107.448 55.023C108.013 54.2972 108.419 53.4607 108.64 52.5677C108.824 51.8583 108.892 51.1238 108.842 50.3925L109.146 50.6369L109.671 51.0838" fill="white"/>
<path d="M111.351 52.7167C111.255 53.1224 111.129 53.5207 110.976 53.9086C110.637 54.7738 110.142 55.5696 109.516 56.2566L109.17 55.9943L108.812 55.7917C109.438 55.1589 109.927 54.4044 110.249 53.5748C110.458 53.0698 110.606 52.5416 110.69 52.0016C110.928 52.2399 111.155 52.4783 111.369 52.7167" fill="white"/>
<path d="M121.065 60.4698L89.4624 73.5566L89.7187 74.1883L121.327 61.1015L121.065 60.4698Z" fill="white"/>
<path d="M121.798 59.0813L121.196 60.7857L126.869 62.21L126.112 61.1313L121.798 59.0813Z" fill="white"/>
<path d="M85.3979 45.1483L88.9319 39.2366C89.006 39.1164 89.124 39.0299 89.2609 38.9954C89.3977 38.9609 89.5427 38.9812 89.6649 39.0518L89.8556 39.2544L93.3835 45.1483V45.6965L89.8496 51.6023C89.7755 51.7224 89.6575 51.8089 89.5206 51.8434C89.3837 51.8779 89.2388 51.8577 89.1166 51.787L88.9319 51.6023L85.3979 45.6965V45.1483Z" fill="white"/>
<path d="M89.3907 40.5476L86.4766 45.4224L89.3907 50.2972L92.3108 45.4224L89.3907 40.5476Z" fill="white"/>
<path d="M94.3547 139.45C98.1985 122.239 88.723 119.015 93.5978 99.7779C93.6753 99.4561 93.7528 99.1283 93.8124 98.8006C93.872 98.4728 93.9375 98.145 93.9911 97.8173C94.1181 96.9389 94.1838 96.0528 94.1878 95.1653C94.2534 91.548 94.307 88.7054 97.2807 86.2263C98.3386 85.3578 99.4805 84.5972 100.689 83.9557C110.981 78.3778 127.626 78.3062 135.677 69.7605C134.473 66.9257 133.008 64.2086 131.303 61.6438C124.819 73.4732 99.8969 67.8952 89.2475 81.3396C78.3656 66.9715 54.3017 73.0322 47.4901 61.62C45.7942 64.1728 44.3359 66.8757 43.1338 69.6949C57.0609 81.8402 70.3562 75.3146 80.8924 86.554C84.4025 89.8317 85.1415 94.045 84.4681 98.7946C83.7291 104.057 83.014 108.419 83.0855 113.335C83.1331 116.416 83.2106 119.086 84.3846 121.875C86.3214 126.464 86.8339 133.794 83.9377 139.396C85.7488 139.59 87.569 139.687 89.3905 139.688C91.0651 139.688 92.7158 139.604 94.3547 139.444" fill="white"/>
<path d="M89.3906 39.1173C76.0582 39.1205 63.2729 44.4182 53.8455 53.8455C44.4181 63.2729 39.1204 76.0583 39.1172 89.3907C39.1188 102.724 44.4158 115.511 53.8434 124.94C63.2709 134.368 76.0572 139.667 89.3906 139.67C102.724 139.667 115.51 134.368 124.938 124.94C134.365 115.511 139.662 102.724 139.664 89.3907C139.661 76.0583 134.363 63.2729 124.936 53.8455C115.508 44.4182 102.723 39.1205 89.3906 39.1173ZM89.3906 38.2056C96.1125 38.2048 102.769 39.5282 108.979 42.1002C115.19 44.6722 120.833 48.4425 125.586 53.1956C130.339 57.9487 134.109 63.5916 136.681 69.8021C139.253 76.0125 140.576 82.6687 140.576 89.3907C140.574 102.965 135.181 115.984 125.582 125.582C115.983 135.181 102.965 140.574 89.3906 140.576C82.6691 140.576 76.0135 139.252 69.8038 136.679C63.5941 134.107 57.9518 130.337 53.1993 125.584C48.4468 120.831 44.6771 115.188 42.1055 108.978C39.5339 102.768 38.2106 96.1121 38.2114 89.3907C38.2106 82.6695 39.5339 76.014 42.1056 69.8043C44.6773 63.5946 48.4471 57.9524 53.1997 53.1998C57.9523 48.4472 63.5945 44.6774 69.8042 42.1057C76.0139 39.534 82.6694 38.2107 89.3906 38.2115V38.2056Z" fill="white" stroke="white" stroke-width="0.595938"/>
<path d="M30.3331 67.5913C31.064 67.111 31.9522 66.9316 32.8122 67.0907C33.6505 67.3331 34.2465 68.082 34.6 69.3374C35.7442 68.3919 36.7752 68.0561 37.693 68.3303C38.0561 68.4492 38.3853 68.6536 38.6529 68.9264C38.9205 69.1991 39.1186 69.5322 39.2305 69.8976C39.5738 70.8836 39.5738 71.9568 39.2305 72.9428C38.9381 73.922 38.4126 74.8157 37.6989 75.5471C36.9758 76.294 34.7311 77.4561 30.9648 79.0333L30.8635 77.7461C32.4437 77.0491 33.9784 76.2529 35.4582 75.3623C36.144 74.9009 36.6459 74.2133 36.8765 73.4196C37.0982 72.7778 37.1211 72.0841 36.9421 71.4292C36.8944 71.1958 36.7878 70.9785 36.6324 70.798C36.4769 70.6175 36.2779 70.4799 36.0541 70.3982C35.8282 70.3397 35.5922 70.3313 35.3627 70.3735C35.1331 70.4157 34.9156 70.5075 34.7252 70.6425C34.6236 71.2745 34.4823 71.8995 34.3021 72.5138C34.1769 72.9369 33.9624 73.5686 33.6465 74.4148L31.3343 74.2181C31.5965 73.5447 31.817 72.913 31.9898 72.3171C32.6374 70.136 32.4666 68.8984 31.4773 68.6044C31.0602 68.4852 30.0292 69.2003 29.5405 69.7248L30.3331 67.5913Z" fill="white"/>
<path d="M38.0805 52.4962L47.1924 58.0146L46.9003 58.4913L43.9564 59.3971L40.2676 57.1385L38.5393 59.9573C37.711 61.3101 37.8183 62.3053 38.8492 62.937C39.7034 63.4535 41.3204 63.2449 43.7002 62.3113L43.8611 63.4555C40.647 64.7626 38.295 64.9612 36.8052 64.0514C36.4731 63.8594 36.1836 63.6019 35.9541 63.2946C35.7247 62.9872 35.56 62.6365 35.4703 62.2636C35.3827 61.9111 35.3676 61.5444 35.426 61.1858C35.4844 60.8273 35.615 60.4843 35.8099 60.1778L38.3784 56.0062L36.7098 55.0408L38.0805 52.4962Z" fill="white"/>
<path d="M45.8276 43.6823C46.5137 44.0277 47.151 44.4625 47.7227 44.9755C48.9384 46.1912 49.2682 47.7525 48.712 49.6595C50.9778 49.3503 53.2198 48.8863 55.4222 48.271L55.2971 49.4629C48.8729 51.052 45.188 51.3838 44.2424 50.4581C43.6346 49.8542 43.7101 49.1709 44.4689 48.4081C44.9969 47.9388 45.6017 47.5639 46.2567 47.2996C46.1945 46.8179 45.9865 46.3667 45.6608 46.0064C45.237 45.7443 44.7714 45.5569 44.2842 45.4522L45.8276 43.6823Z" fill="white"/>
<path d="M67.2635 29.7314L71.8164 39.8623L71.3039 40.0947L68.3242 39.2008L67.3529 37.0256C66.8892 37.5558 66.3157 37.9787 65.6723 38.2652C64.5954 38.7139 63.4123 38.8442 62.2636 38.6406C60.9525 38.4499 60.148 38.0447 59.844 37.3713L58.6045 34.5644L67.2635 29.7314ZM66.3457 34.7074L64.9155 31.3702L61.2445 33.3725L62.8059 36.8469C62.8502 37.0001 62.9294 37.1411 63.0371 37.2588C63.1449 37.3764 63.2784 37.4677 63.4271 37.5253C63.5759 37.583 63.736 37.6055 63.8949 37.5912C64.0538 37.5769 64.2073 37.5261 64.3434 37.4428C64.5675 37.3261 64.7692 37.1708 64.9393 36.9839C65.468 36.2638 65.9383 35.5025 66.3457 34.7074Z" fill="white"/>
<path d="M80.5051 26.6801L82.0546 30.81L77.7161 31.6443C77.013 31.7597 76.3484 32.0439 75.7793 32.4727C75.5658 32.5983 75.3924 32.7822 75.2795 33.0027C75.1666 33.2233 75.1188 33.4715 75.1417 33.7182C75.2787 34.4214 75.8866 34.6717 76.9653 34.4631C77.3597 34.3832 77.7465 34.2696 78.1214 34.1234C78.0867 33.923 78.1078 33.7169 78.1825 33.5277C78.2571 33.3385 78.3823 33.1735 78.5445 33.0507C78.9872 32.6922 79.5183 32.4596 80.082 32.3773C80.7328 32.2202 81.4157 32.2617 82.0426 32.4965C82.2689 32.567 82.4732 32.6944 82.636 32.8666C82.7988 33.0388 82.9146 33.25 82.9723 33.4798C83.1094 34.2009 82.7101 34.7968 81.7804 35.2676L84.6231 36.6144L82.6505 37.3534L79.8556 36.0125C77.9366 36.382 76.3872 36.2072 75.2072 35.4881C74.6981 35.2294 74.2501 34.8648 73.8934 34.4187C73.5368 33.9726 73.2797 33.4554 73.1393 32.9017C73.0666 32.553 73.083 32.1916 73.1872 31.8509C73.2914 31.5102 73.4799 31.2014 73.7353 30.953C74.4332 30.3028 75.3164 29.8861 76.2621 29.7611L79.2417 29.195L78.7948 27.0794L80.5051 26.6801Z" fill="white"/>
<path d="M124.074 36.5965L119.003 45.917L118.675 45.7382L117.448 42.7585L119.271 39.4213C118.372 39.3317 117.497 39.0772 116.691 38.6704C115.938 38.2479 115.246 37.7246 114.635 37.115C114.009 37.4058 113.345 37.6064 112.662 37.7109C113.038 39.0339 113.616 40.6906 114.384 42.7585L113.33 42.836C111.435 38.136 110.825 35.1563 111.5 33.8969C111.582 33.7459 111.696 33.6144 111.834 33.5115C111.972 33.4086 112.13 33.3368 112.299 33.301C112.634 33.2098 112.992 33.2548 113.294 33.4261C113.697 33.6717 114.061 33.9771 114.372 34.332C114.664 34.0638 114.915 33.7546 115.117 33.4142C115.343 32.9476 115.511 32.4554 115.618 31.9482L124.074 36.5965ZM121.571 35.3153L117.525 33.3725C117.403 33.9476 117.203 34.5031 116.929 35.0233C116.707 35.4283 116.424 35.7962 116.089 36.1138C116.493 36.5692 116.97 36.9539 117.501 37.2521C117.919 37.5215 118.397 37.6822 118.892 37.7197C119.388 37.7572 119.885 37.6702 120.338 37.4666L121.571 35.3153Z" fill="white"/>
<path d="M133.109 44.0339C132.802 44.7385 132.401 45.3981 131.917 45.9945C130.753 47.2579 129.205 47.6552 127.274 47.1864C127.675 49.433 128.231 51.6492 128.937 53.8192L127.745 53.7417C125.866 47.385 125.379 43.72 126.285 42.7466C126.881 42.1149 127.549 42.1507 128.341 42.8956C128.844 43.4144 129.247 44.0202 129.533 44.6834C130.014 44.615 130.46 44.3959 130.808 44.0577C131.092 43.6364 131.295 43.1653 131.404 42.6692L133.109 44.0339Z" fill="white"/>
<path d="M143.144 56.5248L141.017 57.806C141.445 58.091 141.807 58.465 142.077 58.9025C142.389 59.3718 142.593 59.9045 142.673 60.4622C142.754 61.0198 142.709 61.5884 142.542 62.1266C142.299 63.1569 141.681 64.0598 140.808 64.6593C139.852 65.2288 138.738 65.4734 137.632 65.3566L137.977 62.6868C139.368 62.8735 140.381 62.7603 141.017 62.3471C141.157 62.2845 141.281 62.1902 141.378 62.0715C141.476 61.9528 141.544 61.813 141.578 61.6633C141.613 61.5135 141.611 61.3578 141.575 61.2086C141.538 61.0594 141.468 60.9207 141.368 60.8036C141.13 60.4341 140.325 59.8739 138.955 59.123L133.997 62.2934L133.728 61.8763L134.175 58.7416L136.041 57.5498C135.279 57.163 134.612 56.6137 134.086 55.9407C133.857 55.5686 133.705 55.1542 133.639 54.7221C133.574 54.29 133.596 53.8492 133.705 53.4259C133.798 52.9641 133.986 52.5266 134.257 52.1409C134.528 51.7553 134.875 51.4299 135.278 51.1852C136.505 50.3985 137.56 50.6905 138.43 52.0552C139.019 53.1361 139.258 54.3727 139.116 55.5951L141.601 54.141L143.144 56.5248ZM138.204 56.1851L138.359 56.0897C138.229 55.4595 137.996 54.8552 137.668 54.3019C137.364 53.8081 136.957 53.3854 136.476 53.0624C136.307 52.9168 136.097 52.8272 135.875 52.8058C135.653 52.7845 135.43 52.8325 135.236 52.9432C135.138 53.0081 135.057 53.0967 135.002 53.2008C134.947 53.3049 134.919 53.4213 134.92 53.5391C134.9 53.82 134.976 54.0993 135.135 54.3317C135.544 54.9793 136.567 55.5971 138.204 56.1851Z" fill="white"/>
<path d="M148.949 69.1765L138.818 72.7521L138.657 72.3111L139.747 69.3314L147.947 66.4411L148.949 69.1765Z" fill="white"/>
<path d="M151.636 80.0523C150.931 80.4149 150.182 80.6853 149.408 80.8568C147.719 81.1468 146.255 80.5132 145.015 78.9558C143.966 80.9791 143.056 83.0718 142.292 85.2191L141.416 84.4444C143.8 78.2625 145.645 75.0584 146.952 74.8319C147.799 74.6889 148.311 75.1477 148.496 76.2085C148.574 76.9146 148.526 77.6291 148.353 78.3181C148.776 78.5521 149.26 78.6519 149.741 78.6042C150.293 78.4125 150.81 78.1327 151.273 77.7758L151.636 80.0523Z" fill="white"/>
<path d="M71.3398 22.5801L73.4435 22.3954C74.098 22.3662 74.7519 22.4654 75.3684 22.6874C76.1185 22.9288 76.8147 23.3133 77.4184 23.8196C78.7046 24.7028 79.8042 25.8308 80.6544 27.139L79.4625 28.1521C78.5249 26.841 77.9289 26.0306 77.6747 25.7207C77.3181 25.3572 76.8721 25.0941 76.3815 24.9579C75.7057 24.7465 74.9931 24.6795 74.2897 24.7612L72.2338 24.94L71.3398 22.5801Z" fill="white"/>
<path d="M64.7604 37.8182C65.0028 37.4845 65.5332 36.6224 66.3516 35.2319L68.0619 35.6729C66.6734 38.1043 63.0739 43.0387 62.5316 43.0387L60.8511 41.9183C60.8511 41.9183 64.5161 38.1401 64.7604 37.8182Z" fill="white"/>
<path d="M87.853 24.6063C87.3882 24.8147 86.9902 25.1478 86.703 25.5685C86.4159 25.9893 86.2508 26.4813 86.2261 26.9901C86.2261 27.5026 86.536 28.0032 87.2213 28.4918C87.969 28.9954 88.8415 29.2821 89.7421 29.3202C90.1386 29.3561 90.5375 29.3561 90.934 29.3202C90.4571 30.1356 89.8279 30.8518 89.0806 31.4298C88.8419 31.0635 88.5274 30.7527 88.1583 30.5183C87.7893 30.2839 87.3742 30.1314 86.9412 30.0711C86.5382 30.0281 86.1343 30.1435 85.8149 30.3929C85.6594 30.526 85.5324 30.6891 85.4413 30.8723C85.3502 31.0556 85.2968 31.2553 85.2845 31.4596C85.274 31.7312 85.3273 32.0016 85.4401 32.2489C85.5529 32.4962 85.7221 32.7137 85.9341 32.8839C86.4622 33.3152 87.1178 33.5603 87.7994 33.5811C88.1976 33.6044 88.5973 33.5844 88.9912 33.5215L91.7743 37.0376L93.1688 36.6919L90.4215 33.1163C92.6145 32.2144 93.7766 30.8239 93.9077 28.9447C93.9737 27.716 93.5832 26.5062 92.8112 25.5479C92.282 24.9446 91.5593 24.5443 90.7671 24.4156C89.7974 24.2 88.7863 24.2661 87.853 24.6063ZM91.3869 28.1819C91.2701 28.3134 91.1256 28.4174 90.9638 28.4864C90.8021 28.5554 90.627 28.5878 90.4513 28.5812C90.2889 28.5691 90.1305 28.5249 89.9853 28.4513C89.84 28.3776 89.7108 28.276 89.6051 28.1521C89.4912 28.0135 89.4062 27.8535 89.3551 27.6816C89.3039 27.5097 89.2876 27.3293 89.3071 27.151C89.3667 26.2928 89.5931 25.822 90.3977 25.536C90.7085 25.4719 91.0313 25.4988 91.3273 25.6134C91.5356 25.7577 91.6969 25.9601 91.7912 26.1953C91.8855 26.4305 91.9086 26.6882 91.8577 26.9364C91.8646 27.3999 91.6965 27.8489 91.3869 28.1939V28.1819Z" fill="white"/>
<path d="M96.6669 26.5431L96.0889 35.2736L98.3058 37.4726L98.8183 37.5084L99.587 26.1438L96.6669 26.5431Z" fill="white"/>
<path d="M38.7361 55.3746L39.7968 55.9705C38.4083 58.4019 34.934 64.3136 34.4334 65.0764L33.1938 64.2838C33.1938 64.2838 37.9435 56.7631 38.7361 55.3746Z" fill="white"/>
<path d="M137.692 91.0534C137.367 90.6751 136.931 90.4083 136.446 90.2906C135.898 90.1952 135.898 89.2358 135.743 88.6935L135.07 86.8759C134.729 86.0957 134.269 85.3738 133.705 84.7365C132.96 83.2339 131.967 81.8679 130.767 80.696C125.97 76.2145 121.828 74.6293 129.676 80.7437C130.528 81.9832 131.512 83.1274 132.263 84.4742C133.901 85.7853 134.426 88.1154 134.921 90.082C134.593 91.4586 133.574 91.4884 132.4 91.9473L129.611 92.3406C126.095 92.3989 122.582 92.1134 119.122 91.4884C118.663 91.262 118.199 91.0653 117.71 90.8925C117.493 90.5689 117.252 90.2621 116.989 89.9747C116.874 88.6989 117.094 87.4153 117.626 86.2501C118.175 85.0583 120.749 80.4874 121.732 80.8867C121.871 80.9211 121.996 80.9962 122.092 81.1024C122.188 81.2086 122.249 81.3411 122.269 81.4826C122.138 83.187 122.036 85.9105 123.091 87.3824C123.268 87.3881 123.443 87.41 123.616 87.448C123.973 86.3693 123.318 84.8914 123.252 83.7472C123.282 82.9308 123.318 82.1382 123.318 81.3634C123.723 78.6758 124.384 77.9428 125.302 77.0012L124.831 77.0906C124.151 77.3901 123.585 77.8997 123.216 78.5447C123.026 78.6817 122.751 78.8545 122.471 79.0572C121.385 79.9421 120.365 80.9062 119.42 81.9415C117.68 83.7293 116.297 87.144 115.356 88.6696C114.963 89.0689 114.563 89.492 114.164 89.9211C113.342 91.3931 114.522 92.0188 114.522 93.5504C114.39 93.7172 114.259 93.8841 114.093 94.0748C113.407 94.3847 112.09 95.2667 112.346 95.946C112.567 96.542 113.193 96.4407 113.675 96.4824C113.99 96.5201 114.306 96.54 114.623 96.542C114.405 96.3429 114.242 96.0902 114.152 95.809C113.938 95.213 114.063 95.0939 114.587 94.8078C115.416 94.3812 116.318 94.1125 117.245 94.0152C117.471 93.8841 117.668 93.753 117.841 93.6517C118.794 93.6517 119.45 94.1106 120.296 94.3728C120.821 94.3728 121.548 94.2417 121.935 94.635C122.561 94.1761 123.055 94.4741 123.514 94.933C124.396 94.8018 125.344 94.337 126.232 94.6707C127.507 94.5396 128.949 95.0641 130.165 95.3561C130.89 95.7144 131.681 95.9174 132.489 95.952C133.049 96.1844 133.609 96.4109 134.164 96.6731C135.111 96.8042 136.458 97.5908 135.409 98.6397C133.967 98.2821 132.555 97.4478 131.148 96.8519C129.938 96.5694 128.744 96.2193 127.573 95.803H125.445C123.163 95.9162 118.89 95.1713 117.191 95.6064C116.425 95.6779 115.667 95.8195 114.927 96.0295L114.635 96.5241C114.831 97.0485 114.992 97.573 115.159 98.1272V101.602C114.861 103.205 114.563 104.849 114.236 106.488C113.302 108.09 111.97 109.422 110.368 110.356C109.909 110.356 109.456 110.386 108.961 110.421C108.276 110.094 107.913 109.075 107.025 109.402C106.429 110.225 107.257 111.786 106.572 112.454C106.101 112.399 105.65 112.229 105.261 111.959C104.963 111.333 104.665 110.767 104.373 110.171C102.799 110.731 103.181 112.555 102.829 113.908C102.668 114.039 102.507 114.17 102.311 114.301C102.311 114.468 102.376 114.629 102.406 114.825C103.062 115.254 103.813 115.546 103.979 116.363C103.783 116.887 103.586 117.644 103.091 117.972C104.176 118.759 104.343 120.63 104.111 121.84C103.813 121.971 103.324 122.167 103.193 122.435L102.209 122.733C101.267 123.45 100.56 124.432 100.177 125.552C99.7056 126.368 99.3638 127.253 99.1643 128.174L99.5874 128.27C99.6461 127.868 99.8038 127.487 100.046 127.161C100.142 126.696 100.243 126.273 100.344 125.85C101 125.516 101.387 124.73 101.751 124.11C102.2 123.813 102.602 123.449 102.943 123.031C103.547 122.834 104.178 122.733 104.814 122.733C105.63 123.127 105.535 123.031 105.535 124.009L104.343 124.795L102.144 126.994C101.685 128.335 101.03 129.617 100.833 131.023C100.904 131.714 100.964 132.435 101.03 133.15C101.196 133.746 101.554 134.462 100.964 134.855C98.7709 134.497 98.2167 131.679 97.6863 129.909C97.2394 126.178 97.6863 124.545 100.016 121.911C100.541 121.458 100.898 121.315 101 120.606C97.6029 119.414 93.3539 111.667 98.8365 107.758C100.767 107.162 99.7542 110.141 99.6589 111.035C99.7542 111.399 99.8198 111.756 99.8853 112.12C100.148 112.513 100.374 112.906 100.606 113.312C100.999 113.496 101.354 113.751 101.655 114.063L101.721 113.675C101.03 113.341 100.702 111.971 100.571 111.214C100.41 109.021 101.292 107.215 103.389 106.595L103.687 106.202C102.633 105.427 101.304 105.678 100.01 106.202C98.377 106.748 96.9542 107.79 95.9402 109.182C95.3918 109.87 95.0106 110.676 94.8265 111.536C94.6424 112.396 94.6606 113.288 94.8795 114.14C95.4754 116.869 96.7686 117.805 98.0499 119.503C98.5867 119.718 99.0272 120.121 99.2894 120.636C99.647 121.53 98.9438 121.881 98.3776 122.388C98.2661 122.595 98.1407 122.794 98.0022 122.984C96.8765 124.588 96.2975 126.512 96.3512 128.471C96.4049 130.43 97.0883 132.32 98.3001 133.86C99.3725 135.299 100.943 136.287 102.704 136.631C105.463 137.227 103.062 135.624 102.573 132.429V131.023C102.871 130.222 103.071 129.387 103.169 128.538C103.854 127.453 104.152 126.667 104.45 126.208C104.969 125.88 105.463 125.552 105.958 125.254C106.81 125.749 106.709 126.041 106.774 127.155C107.175 128.292 107.81 129.332 108.64 130.207C109.689 130.892 110.278 130.892 111.494 130.802L111.786 130.308C111.721 130.111 111.661 129.944 111.59 129.783C110.576 128.341 110.183 126.965 111.625 125.522C111.959 126.114 112.431 126.615 113.002 126.983C114.504 127.841 115.386 127.775 117.174 127.954C118.502 128.091 119.39 128.389 118.288 126.607C116.554 125.457 116.78 124.223 117.174 122.31C117.789 121.515 118.537 120.832 119.384 120.29C124.694 116.75 130.91 112.668 134.146 104.986C134.925 103.246 135.435 101.397 135.659 99.5038C136.148 99.2416 136.893 99.3548 137.221 99.0092C138.52 97.6028 136.381 96.9055 135.963 95.9162C135.855 95.6398 135.82 95.3401 135.862 95.0462C135.904 94.6496 136.045 94.2699 136.272 93.9419C136.499 93.614 136.805 93.3482 137.161 93.169C137.482 93.0162 137.763 92.7919 137.984 92.5134C138.092 92.2698 138.122 91.9985 138.07 91.7369C138.018 91.4754 137.886 91.2365 137.692 91.0534ZM116.47 92.2751C116.208 92.2076 115.964 92.0813 115.758 91.9058C115.551 91.7303 115.387 91.5101 115.278 91.262C115.41 91.0653 115.445 90.8329 115.737 90.8329C116.655 91.1964 117.281 91.262 117.442 92.3406C117.12 92.299 116.795 92.2771 116.47 92.2751ZM133.806 93.6159C133.055 93.5504 132.298 93.5206 131.512 93.4848V93.3239L132.793 93.1273C133.186 92.5313 134.664 91.8162 135.219 92.3704C134.956 92.9962 134.36 93.1928 133.806 93.6159ZM128.598 97.0247C130.105 97.3882 130.296 98.8602 128.925 99.6766C128.718 99.5185 128.499 99.377 128.27 99.2535C128.037 98.5026 127.614 97.3525 128.598 97.0247ZM129.194 103.675L128.931 104.009C128.74 103.876 128.541 103.754 128.335 103.646C128.375 103.463 128.398 103.278 128.407 103.091C128.59 103.054 128.775 103.032 128.961 103.026C129.086 103.187 129.086 103.187 129.188 103.693L129.194 103.675ZM126.244 96.8638C126.762 97.6504 126.113 98.306 125.785 98.9913C125.129 98.8602 125.129 98.8602 124.998 98.735C124.891 97.7339 124.861 96.4049 126.238 96.8638H126.244ZM126.375 103.812C125.85 103.514 125.749 103.485 125.749 102.859L126.345 102.662C126.792 103.056 126.5 103.354 126.369 103.812H126.375ZM126.971 104.331C128.312 104.826 127.263 106.268 126.285 106.464C126.148 106.172 126.148 106.172 125.761 105.809C125.761 105.272 125.921 104.747 126.22 104.301C126.476 104.295 126.733 104.305 126.989 104.331H126.971ZM123.991 101.512C124.063 101.065 124.355 100.749 124.641 100.791C124.927 100.833 125.105 101.244 125.034 101.691C124.962 102.138 124.664 102.454 124.378 102.406C124.092 102.358 123.914 101.953 123.991 101.512ZM124.742 104.11C124.706 104.331 124.563 104.492 124.42 104.468C124.277 104.444 124.188 104.242 124.223 104.021C124.259 103.801 124.408 103.64 124.551 103.663C124.694 103.687 124.784 103.884 124.742 104.11ZM123.681 105.088H124.17C124.206 105.451 124.271 105.547 124.14 105.845L123.645 105.713C123.674 105.506 123.686 105.297 123.681 105.088ZM108.568 111.512C109.259 111.28 109.522 112.036 109.224 112.561C109.027 112.43 108.801 112.299 108.568 112.167V111.512ZM104.599 114.587C104.524 114.207 104.563 113.813 104.712 113.455C105.107 113.493 105.476 113.668 105.755 113.949C105.623 114.136 105.45 114.29 105.25 114.4C105.05 114.511 104.827 114.575 104.599 114.587ZM107.06 122.984C105.523 121.965 105.225 120.391 104.832 118.687C104.87 118.371 104.892 118.052 104.897 117.734C105.028 117.769 105.195 118.067 105.392 118.228C105.946 119.509 107.555 121.506 107.06 122.984ZM109.224 129.634C107.752 129.009 107.388 126.75 107.388 125.308C107.519 124.783 107.68 123.8 108.109 123.437C108.303 123.505 108.488 123.593 108.664 123.699C109.027 124.551 108.568 125.147 108.568 126.029C109.093 127.108 110.046 128.556 109.224 129.634ZM109.057 119.67L109.122 119.241L109.355 119.277C109.393 119.376 109.403 119.484 109.385 119.589C109.367 119.694 109.322 119.792 109.253 119.873L109.057 119.67ZM110.988 122C110.831 121.963 110.684 121.894 110.555 121.797C110.426 121.701 110.318 121.58 110.237 121.44C110.076 119.736 112.108 121.244 110.958 122H110.988ZM111.977 119.67C111.978 119.426 112.028 119.184 112.123 118.959C112.218 118.734 112.357 118.531 112.531 118.359C113.383 118.788 113.026 119.509 112.436 120.099L111.977 119.67ZM115.159 126.935C114.408 126.56 113.704 126.098 113.062 125.558C112.698 124.801 112.537 123.395 113.419 122.972C113.681 123.49 113.514 124.247 113.878 124.605C115.022 124.605 113.616 122.573 115.123 122.346C115.421 123.538 115.451 124.73 115.845 125.922C115.845 126.619 115.845 126.714 115.159 126.935ZM114.605 118.741C115.159 119.527 115.201 119.527 114.498 120.219C113.979 119.784 113.824 118.949 114.605 118.753V118.741ZM114.557 116.816C114.826 116.673 115.112 116.709 115.207 116.881C115.302 117.054 115.153 117.316 114.885 117.477C114.617 117.638 114.331 117.585 114.236 117.406C114.14 117.227 114.289 116.965 114.557 116.804V116.816ZM116.667 120.898C116.405 121.035 116.113 121.005 116.023 120.826C115.934 120.648 116.071 120.397 116.339 120.231C116.607 120.064 116.899 120.117 116.989 120.296C117.078 120.475 116.935 120.767 116.667 120.91V120.898ZM117.418 118.741C117.191 118.806 116.923 118.872 116.667 118.937L116.405 118.645C116.238 117.829 116.405 117.495 117.221 117.269C117.781 117.674 117.716 118.163 117.4 118.753L117.418 118.741ZM116.637 115.612L116.971 115.272L117.305 115.612L116.971 115.946L116.637 115.612ZM113.485 116.363C112.725 117.099 111.769 117.6 110.731 117.805C109.456 118.526 109.456 118.526 109.253 118.759C109.063 118.693 108.866 118.627 108.658 118.562C107.412 118.759 106.661 118.788 106.494 117.447C106.56 116.56 106.56 116.56 106.691 116.256C110.922 113.741 113.348 112.156 115.541 105.708C115.773 104.295 116 102.889 116.226 101.476C116.292 100.004 116.327 98.5622 116.357 97.12C116.589 96.4288 116.691 96.3275 117.346 96.0712C117.346 95.9103 117.346 95.9043 117.215 95.5766C117.65 96.3632 123.24 96.3334 123.407 96.8519C123.314 98.8357 123.073 100.81 122.686 102.758C121.804 104.855 121.869 107.406 120.034 109.015C118.139 111.44 116.452 115.123 113.485 116.357V116.363ZM122.465 109.456C122.334 109.682 122.173 109.945 122.007 110.207C121.411 109.909 121.059 109.611 121.452 108.794C121.679 108.699 121.911 108.634 122.108 108.568C122.242 108.856 122.362 109.15 122.465 109.45V109.456ZM119.319 113.777L118.86 113.842L118.794 113.514L119.289 113.616L119.319 113.777ZM119.974 115.123C120.535 115.91 119.974 116.595 119.319 117.054C118.598 116.959 118.598 116.697 118.401 115.862C118.592 114.724 119.224 115.052 119.974 115.117V115.123ZM119.712 118.645C119.313 118.848 118.878 118.8 118.741 118.538C118.604 118.276 118.824 117.894 119.224 117.686C119.623 117.477 120.052 117.525 120.195 117.787C120.338 118.049 120.117 118.431 119.712 118.639V118.645ZM120.433 112.09C120.239 112.029 120.039 111.985 119.837 111.959C119.641 111.303 119.867 111.005 120.529 110.91C120.976 111.25 120.666 111.738 120.433 112.102V112.09ZM121.029 113.663L121.327 113.467C122.179 113.467 122.013 113.89 122.013 114.545C121.226 114.414 121.226 114.414 121.065 114.289C121.069 114.084 121.055 113.878 121.023 113.675L121.029 113.663ZM122.602 116.25C122.108 116.119 122.108 116.119 121.947 115.958C121.982 115.783 122.004 115.605 122.013 115.427C122.698 114.742 122.799 115.362 122.865 115.987L122.602 116.25ZM123.157 112.418C122.996 112.483 122.799 112.549 122.602 112.614C122.391 112.444 122.255 112.197 122.225 111.926C122.195 111.656 122.273 111.385 122.442 111.172C122.665 111.205 122.884 111.259 123.097 111.333C123.216 111.709 123.359 112.001 123.151 112.43L123.157 112.418ZM123.586 108.485C123.389 108.419 123.157 108.353 122.93 108.288C122.764 108.083 122.665 107.831 122.648 107.567C122.631 107.303 122.696 107.041 122.835 106.816L123.622 106.715C124.039 107.317 123.842 107.865 123.58 108.497L123.586 108.485ZM124.015 109.11L124.241 109.009C124.423 109.075 124.586 109.184 124.716 109.327C124.846 109.47 124.94 109.642 124.989 109.829C125.037 110.017 125.04 110.213 124.996 110.401C124.952 110.589 124.863 110.764 124.736 110.91C124.522 110.846 124.302 110.802 124.08 110.779C123.841 110.257 123.816 109.663 124.009 109.122L124.015 109.11ZM124.736 114.474C124.438 114.378 124.14 114.313 124.015 114.051C123.914 112.936 124.015 112.311 125.326 112.311C126.238 112.984 125.445 114.069 124.73 114.492L124.736 114.474ZM125.785 106.727L126.208 106.858C126.667 107.317 126.804 108.461 126.047 108.693C124.891 108.461 125.088 107.412 125.779 106.727H125.785ZM127.817 111.119L126.834 111.905L126.44 111.577C125.916 110.332 126.208 109.676 127.388 109.676C127.841 109.968 127.811 110.63 127.811 111.119H127.817ZM127.781 101.482L127.358 101.78C127.117 101.747 126.885 101.662 126.68 101.532C126.474 101.401 126.299 101.228 126.166 101.023C126.166 98.4013 128.365 99.7183 127.775 101.482H127.781ZM130.427 106.363C130.344 106.959 130.022 107.346 129.706 107.275H129.646C130.242 108.157 129.682 109.063 128.991 109.599C128.647 109.49 128.334 109.3 128.079 109.045C127.686 107.853 128.175 107.537 129.271 107.334V106.738C128.747 106.214 129.068 105.624 129.402 105.004C130.153 104.873 130.153 105.07 130.451 105.69L130.421 105.767C130.456 105.964 130.456 106.166 130.421 106.363H130.427ZM130.636 102.43C130.419 102.394 130.2 102.374 129.98 102.37C129.761 101.798 129.738 101.169 129.915 100.582C131.315 100.368 131.905 101.81 130.63 102.43H130.636ZM131.828 104.402C131.598 104.272 131.356 104.162 131.107 104.075C131.101 103.672 131.251 103.284 131.526 102.99C131.8 102.695 132.177 102.518 132.578 102.495C132.69 102.85 132.677 103.232 132.543 103.578C132.409 103.925 132.161 104.215 131.84 104.402H131.828ZM132.745 100.535L132.06 100.439C131.874 100.194 131.742 99.9122 131.674 99.612C131.607 99.3118 131.604 99.0006 131.667 98.6993C132.352 98.2702 132.811 98.5324 133.3 99.0211C133.383 99.909 133.49 100.01 132.757 100.535H132.745Z" fill="white"/>
<path d="M80.7021 119.509C81.9834 117.817 83.2706 116.881 83.8665 114.146C84.0877 113.294 84.1075 112.403 83.9244 111.542C83.7413 110.682 83.3604 109.876 82.8117 109.188C81.7949 107.798 80.3732 106.758 78.7415 106.208C77.4662 105.684 76.1134 105.433 75.0645 106.208L75.3565 106.601C77.4542 107.197 78.3362 109.027 78.1753 111.22C78.0442 111.977 77.7165 113.347 77.0311 113.681L77.0907 114.069C77.3939 113.759 77.7489 113.505 78.1396 113.318C78.372 112.895 78.6044 112.501 78.8607 112.126C78.9322 111.762 78.9977 111.405 79.0931 111.041C78.9977 110.153 77.9787 107.144 79.9155 107.763C85.3981 111.691 81.1431 119.426 77.7522 120.612C77.8476 121.297 78.2111 121.464 78.7295 121.917C81.0477 124.551 81.5126 126.16 81.0477 129.915C80.5233 131.702 79.9631 134.497 77.776 134.855C77.1801 134.462 77.5436 133.74 77.7045 133.15C77.776 132.435 77.8356 131.714 77.9012 131.029C77.7045 129.617 77.055 128.335 76.5901 126.994L74.3971 124.795C74.0038 124.533 73.6045 124.277 73.2052 124.009C73.2052 123.031 73.1039 123.127 73.9263 122.733C74.5599 122.734 75.1894 122.835 75.7916 123.031C76.1344 123.447 76.5359 123.81 76.9834 124.11C77.285 124.807 77.7713 125.409 78.3899 125.85C78.4912 126.273 78.5865 126.696 78.6819 127.161C78.929 127.485 79.089 127.867 79.1467 128.27L79.5698 128.174C79.3703 127.253 79.0285 126.368 78.5567 125.552C78.1712 124.433 77.4644 123.453 76.5246 122.733L75.5413 122.441C75.4102 122.143 74.9453 121.947 74.6235 121.816C74.3911 120.624 74.558 118.735 75.6366 117.948C75.148 117.62 74.9513 116.869 74.7546 116.345C74.9215 115.523 75.6724 115.231 76.3279 114.802C76.3577 114.605 76.3875 114.444 76.4233 114.277C76.2266 114.146 76.0597 114.015 75.8988 113.884C75.5711 112.543 75.8988 110.707 74.3613 110.147C74.0634 110.743 73.7654 111.339 73.4734 111.935C73.0834 112.205 72.6332 112.375 72.1623 112.43C71.477 111.738 72.3292 110.201 71.7034 109.378C70.8215 109.051 70.4579 110.07 69.7726 110.398C69.278 110.362 68.8191 110.332 68.3602 110.332C66.7601 109.396 65.4281 108.064 64.4926 106.464C64.1648 104.826 63.8967 103.181 63.5748 101.578V98.1033C63.7417 97.5491 63.9026 97.0247 64.0993 96.5003L63.8073 96.0056C63.0688 95.7962 62.3128 95.6546 61.5487 95.5825C59.8383 95.1475 55.5893 95.8924 53.283 95.7792H51.2032C50.0316 96.1946 48.8379 96.5448 47.6275 96.828C46.2152 97.3882 44.8088 98.2404 43.3666 98.6158C42.3177 97.567 43.6586 96.7803 44.6121 96.6492C45.1663 96.387 45.7265 96.1606 46.2807 95.9341C47.0895 95.8938 47.882 95.6911 48.6108 95.3382C49.8027 95.0402 51.2628 94.5158 52.544 94.6469C53.426 94.3191 54.3795 94.778 55.2615 94.9091C55.7204 94.4502 56.215 94.1582 56.8348 94.6111C57.2281 94.2178 57.9492 94.3489 58.4736 94.3489C59.3258 94.0867 59.9813 93.6278 60.9289 93.6278C61.1315 93.7291 61.3282 93.8603 61.5606 93.9914C62.4738 94.0837 63.3624 94.3423 64.1827 94.7542C64.7012 95.0402 64.8323 95.1356 64.6177 95.7553C64.5286 96.0357 64.3685 96.2882 64.1529 96.4883C64.4677 96.4891 64.7823 96.4691 65.0945 96.4287C65.5772 96.387 66.2029 96.4824 66.4175 95.8984C66.6797 95.2011 65.3627 94.331 64.6714 94.0212C64.5105 93.8305 64.3794 93.6636 64.2483 93.5027C64.2483 91.9652 65.4401 91.3394 64.6118 89.8675C64.2125 89.4384 63.8192 89.0153 63.4199 88.622C62.4783 87.0904 61.0957 83.6578 59.3496 81.8879C58.41 80.8497 57.392 79.8854 56.3044 79.0035C56.0243 78.8009 55.7502 78.6281 55.5535 78.497C55.1904 77.8481 54.6255 77.3354 53.9445 77.0369L53.4797 76.9475C54.3914 77.8891 55.0589 78.6221 55.4582 81.3158C55.4582 82.0964 55.4939 82.889 55.5237 83.6995C55.4582 84.8437 54.8026 86.3216 55.1602 87.4003C55.3326 87.3623 55.5082 87.3404 55.6846 87.3347C56.7335 85.8628 56.6381 83.1632 56.507 81.4349C56.5266 81.2934 56.5882 81.161 56.6838 81.0547C56.7794 80.9485 56.9047 80.8734 57.0434 80.839C58.0267 80.4338 60.619 85.0106 61.1494 86.2024C61.6817 87.3676 61.9014 88.6512 61.787 89.9271C61.5258 90.216 61.2848 90.5226 61.0659 90.8448C60.5713 91.0415 60.1124 91.2381 59.6536 91.4407C56.198 92.0916 52.6872 92.4029 49.171 92.3704L46.382 91.9771C45.1902 91.5182 44.189 91.4884 43.8612 90.1118C44.3558 88.1452 44.8803 85.8151 46.5191 84.504C47.27 83.1632 48.2533 82.013 49.1055 80.7735C56.948 74.6591 52.8122 76.2443 48.0149 80.7258C46.8154 81.8993 45.8204 83.2649 45.071 84.7662C44.5108 85.4054 44.0526 86.127 43.7122 86.9057L43.0448 88.7233C42.8839 89.2656 42.8839 90.225 42.3356 90.3204C41.8653 90.4356 41.4413 90.6913 41.1199 91.0534C40.9197 91.2347 40.7819 91.4747 40.7262 91.7391C40.6706 92.0035 40.6999 92.2787 40.81 92.5253C41.0276 92.8067 41.3097 93.0315 41.6324 93.1809C41.985 93.3637 42.2864 93.6317 42.5091 93.9606C42.7319 94.2894 42.8689 94.6688 42.9077 95.0641C42.9466 95.358 42.9118 95.657 42.8064 95.9341C42.3893 96.9174 40.2498 97.6147 41.549 99.0211C41.8767 99.3667 42.6217 99.2535 43.1103 99.5157C43.3349 101.409 43.8452 103.258 44.624 104.998C47.854 112.68 54.0756 116.762 59.3854 120.308C60.233 120.849 60.981 121.533 61.5963 122.328C61.9897 124.259 62.1923 125.469 60.476 126.619C59.3794 128.407 60.2674 128.103 61.5963 127.966C63.3841 127.793 64.2542 127.853 65.7679 126.994C66.3387 126.627 66.8113 126.126 67.1445 125.534C68.5867 126.977 68.1934 128.353 67.1803 129.795C67.1147 129.956 67.0492 130.123 66.9777 130.32L67.2756 130.814C68.4675 130.91 69.0634 130.91 70.1242 130.218C70.9553 129.344 71.5929 128.304 71.9954 127.167C72.061 126.059 71.9597 125.761 72.8119 125.266C73.3065 125.564 73.7952 125.862 74.3196 126.22C74.6176 126.679 74.9155 127.465 75.6009 128.55C75.6961 129.4 75.8963 130.234 76.1968 131.035V132.441C75.7081 135.636 73.3125 137.209 76.0657 136.643C77.8296 136.305 79.4017 135.315 80.4697 133.872C81.6824 132.332 82.3669 130.443 82.4216 128.484C82.4764 126.525 81.8985 124.6 80.7736 122.996C80.6298 122.808 80.5022 122.609 80.3922 122.4C79.7963 121.893 79.1229 121.542 79.4864 120.648C79.7416 120.134 80.1732 119.73 80.7021 119.509ZM63.0683 90.8329C63.3603 90.8329 63.3961 91.0653 63.5272 91.262C63.4183 91.5101 63.2544 91.7303 63.0479 91.9058C62.8414 92.0813 62.5978 92.2076 62.3353 92.2751C62.0158 92.2877 61.6974 92.3195 61.3818 92.3704C61.5308 91.262 62.1506 91.1785 63.0683 90.8329ZM45.9589 93.1273L47.2402 93.3239V93.4848C46.4535 93.5206 45.7027 93.5563 44.9518 93.6159C44.3916 93.1928 43.8016 93.02 43.5037 92.3704C44.0996 91.8162 45.5656 92.5373 45.9589 93.1273ZM74.0693 113.455C74.2185 113.813 74.2579 114.207 74.1825 114.587C73.9543 114.574 73.7318 114.511 73.5316 114.4C73.3314 114.29 73.1588 114.136 73.0264 113.949C73.3068 113.669 73.6751 113.495 74.0693 113.455ZM70.2136 111.512V112.167C69.9871 112.299 69.7547 112.43 69.5581 112.561C69.2661 112.036 69.5283 111.28 70.2136 111.512ZM55.1364 105.713L54.6477 105.845C54.5106 105.547 54.5762 105.451 54.6119 105.088H55.1066C55.1025 105.297 55.1124 105.506 55.1364 105.713ZM54.1411 100.791C54.4272 100.749 54.7371 101.065 54.7967 101.512C54.8563 101.959 54.6954 102.352 54.4034 102.406C54.1114 102.46 53.8074 102.132 53.7538 101.691C53.7002 101.25 53.8551 100.845 54.1411 100.791ZM54.3616 104.468C54.2186 104.468 54.0756 104.331 54.0339 104.11C53.9922 103.89 54.0875 103.687 54.2305 103.663C54.3736 103.64 54.5225 103.801 54.5583 104.021C54.5941 104.241 54.5106 104.438 54.3616 104.468ZM52.5738 96.8638C53.9504 96.4049 53.9147 97.716 53.8193 98.735C53.6882 98.8602 53.6882 98.8602 53.0267 98.9913C52.6811 98.3298 52.0196 97.6504 52.55 96.8638H52.5738ZM52.4427 103.812C52.3176 103.354 52.0196 103.056 52.4785 102.662L53.0744 102.859C53.0387 103.485 52.9433 103.514 52.4427 103.812ZM53.0387 105.809C52.6453 106.172 52.6453 106.172 52.5083 106.464C51.5309 106.268 50.4821 104.826 51.8229 104.331C52.075 104.315 52.3278 104.315 52.5798 104.331C52.8709 104.77 53.0301 105.282 53.0387 105.809ZM50.2199 97.0247C51.2032 97.3525 50.7741 98.5026 50.5417 99.2535C50.3143 99.377 50.097 99.5185 49.8921 99.6766C48.4857 98.8602 48.6824 97.3882 50.1901 97.0247H50.2199ZM50.4821 103.646C50.2769 103.756 50.0779 103.877 49.8862 104.009L49.618 103.675C49.7193 103.187 49.7193 103.187 49.8504 103.026C50.0367 103.032 50.2221 103.054 50.4046 103.091C50.4052 103.277 50.4211 103.462 50.4523 103.646H50.4821ZM45.5 99.0211C45.9887 98.5324 46.4476 98.2702 47.1329 98.6993C47.1949 99.0002 47.1925 99.3109 47.1257 99.6108C47.0589 99.9108 46.9294 100.193 46.7456 100.439L46.0602 100.535C45.2915 100.01 45.3987 99.909 45.4703 99.0211H45.5ZM46.972 104.385C46.6487 104.199 46.3982 103.91 46.2617 103.563C46.1252 103.216 46.1109 102.833 46.2211 102.478C46.6221 102.506 46.9966 102.688 47.2672 102.986C47.5378 103.283 47.6839 103.673 47.6752 104.075C47.4215 104.161 47.1761 104.271 46.9422 104.402L46.972 104.385ZM48.8671 100.565C49.0427 101.151 49.0218 101.779 48.8075 102.352C48.5858 102.356 48.3648 102.376 48.146 102.412C46.8767 101.81 47.4666 100.368 48.8671 100.565ZM50.7085 109.057C50.4524 109.314 50.1374 109.504 49.7908 109.611C49.1055 109.057 48.5453 108.169 49.1412 107.287H49.0816C48.7658 107.352 48.444 106.941 48.3606 106.375C48.3226 106.178 48.3226 105.976 48.3606 105.779V105.702C48.6526 105.106 48.6526 104.885 49.4094 105.016C49.7372 105.612 50.0649 106.208 49.5405 106.75V107.346C50.6132 107.543 51.1019 107.865 50.7085 109.057ZM52.6155 101.023C52.4828 101.228 52.3076 101.401 52.102 101.532C51.8963 101.662 51.665 101.747 51.4237 101.78L51.0006 101.482C50.4165 99.7183 52.6155 98.4013 52.6155 101.023ZM52.3533 111.577L51.96 111.905L50.9767 111.119C50.9767 110.63 50.941 109.968 51.3998 109.676C52.5798 109.653 52.8778 110.332 52.3533 111.577ZM52.5798 106.858L53.0029 106.727C53.6942 107.412 53.8909 108.461 52.7467 108.693C51.9898 108.461 52.1209 107.317 52.5798 106.858ZM54.7728 114.069C54.6477 114.331 54.3497 114.396 54.0518 114.492C53.3366 114.069 52.55 112.984 53.4558 112.328C54.743 112.328 54.8742 112.954 54.7728 114.069ZM54.7132 110.791C54.4891 110.814 54.2677 110.858 54.0518 110.922C53.9251 110.776 53.836 110.601 53.792 110.413C53.7479 110.225 53.7504 110.028 53.7991 109.841C53.8477 109.654 53.9412 109.482 54.0714 109.339C54.2016 109.196 54.3646 109.087 54.5464 109.021L54.7728 109.116C54.9672 109.662 54.9459 110.261 54.7132 110.791ZM55.1662 106.727L55.9528 106.828C56.0914 107.053 56.1566 107.315 56.1395 107.579C56.1224 107.843 56.0239 108.095 55.8575 108.3C55.631 108.365 55.3986 108.431 55.2019 108.496C54.9397 107.865 54.743 107.317 55.1662 106.727ZM55.6965 111.345C55.9076 111.271 56.125 111.217 56.3461 111.184C56.5148 111.397 56.5925 111.668 56.5624 111.938C56.5322 112.208 56.3967 112.456 56.1852 112.626C55.9886 112.561 55.7919 112.495 55.631 112.43C55.5496 112.258 55.5129 112.069 55.5243 111.879C55.5358 111.689 55.595 111.506 55.6965 111.345ZM56.2925 109.45C56.3957 109.147 56.5171 108.85 56.656 108.562C56.8467 108.628 57.0791 108.693 57.3115 108.789C57.6989 109.611 57.3771 109.903 56.7514 110.201C56.6143 109.939 56.4474 109.653 56.3163 109.45H56.2925ZM56.1614 116.262L55.8992 115.999C55.9647 115.374 56.066 114.754 56.7514 115.439C56.7603 115.617 56.7822 115.795 56.8169 115.97C56.6798 116.13 56.6798 116.13 56.1852 116.262H56.1614ZM57.6989 114.301C57.538 114.426 57.538 114.426 56.7514 114.557C56.7514 113.902 56.5905 113.479 57.4367 113.479L57.7347 113.675C57.7118 113.883 57.7078 114.092 57.7227 114.301H57.6989ZM58.2293 110.922C58.8848 111.017 59.1113 111.315 58.9146 111.971C58.7125 111.997 58.5131 112.041 58.3187 112.102C58.1161 111.738 57.8062 111.25 58.2531 110.922H58.2293ZM60.0171 118.532C59.88 118.794 59.4212 118.842 59.0457 118.639C58.6703 118.437 58.4498 118.043 58.569 117.781C58.6882 117.519 59.1649 117.471 59.5344 117.68C59.9039 117.888 60.1899 118.27 60.0409 118.532H60.0171ZM59.4212 117.048C58.8252 116.589 58.2293 115.904 58.7656 115.117C59.5165 115.052 60.178 114.724 60.3389 115.868C60.1899 116.691 60.1899 116.953 59.4629 117.048H59.4212ZM59.4212 113.771V113.61L59.9158 113.508L59.8502 113.836L59.4212 113.771ZM61.3222 118.753C61.0302 118.157 60.9587 117.674 61.5189 117.281C62.3055 117.507 62.5022 117.841 62.3353 118.657L62.0731 118.949L61.3222 118.753ZM61.4354 115.606L61.7692 115.266L62.1029 115.606L61.7692 115.94L61.4354 115.606ZM62.7167 120.838C62.6333 121.017 62.3353 121.047 62.0671 120.91C61.799 120.773 61.6619 120.517 61.7513 120.314C61.8407 120.111 62.1327 120.105 62.4008 120.248C62.669 120.391 62.8538 120.666 62.7584 120.838H62.7167ZM65.6964 125.57C65.0553 126.109 64.3532 126.571 63.6046 126.947C62.9134 126.714 62.9134 126.619 62.9134 125.928C63.3067 124.736 63.3365 123.544 63.6344 122.352C65.1422 122.579 63.7358 124.611 64.88 124.611C65.2435 124.253 65.0766 123.496 65.3388 122.978C66.2506 123.407 66.0837 124.813 65.7202 125.57H65.6964ZM64.5045 117.394C64.4211 117.573 64.1231 117.602 63.8609 117.465C63.5987 117.328 63.4497 117.072 63.545 116.869C63.6404 116.667 63.9205 116.661 64.1887 116.804C64.4568 116.947 64.6356 117.221 64.5403 117.4L64.5045 117.394ZM64.2483 120.231C63.557 119.539 63.5927 119.539 64.1469 118.753C64.9574 118.949 64.8025 119.784 64.284 120.231H64.2483ZM66.346 120.099C65.75 119.503 65.3925 118.788 66.2447 118.359C66.4189 118.53 66.5575 118.734 66.6526 118.959C66.7478 119.184 66.7974 119.426 66.7989 119.67L66.346 120.099ZM65.2554 116.357C62.2757 115.129 60.6071 111.417 58.7358 109.021C56.9003 107.412 56.948 104.849 56.0839 102.764C55.7167 100.814 55.4956 98.8401 55.4224 96.8578C55.5833 96.3394 61.1851 96.3692 61.6202 95.5825C61.4533 95.9162 61.4533 95.9162 61.4831 96.0771C62.1386 96.3394 62.2399 96.4347 62.4664 97.126C62.5022 98.5682 62.532 100.01 62.6035 101.482C62.8299 102.895 63.0564 104.301 63.2888 105.713C65.4818 112.162 67.9133 113.747 72.1385 116.262C72.2696 116.554 72.2696 116.554 72.3351 117.453C72.1683 118.794 71.4174 118.765 70.1719 118.568C69.9395 118.633 69.7488 118.699 69.5759 118.765C69.3793 118.532 69.3793 118.532 68.104 117.811C67.044 117.613 66.0658 117.107 65.2911 116.357H65.2554ZM69.719 119.67L69.5223 119.867C69.4538 119.786 69.4083 119.688 69.3905 119.583C69.3727 119.478 69.3832 119.37 69.421 119.271L69.6534 119.235L69.719 119.67ZM68.5271 121.458C68.4463 121.597 68.3381 121.719 68.209 121.815C68.0799 121.911 67.9327 121.981 67.7762 122.018C66.6737 121.244 68.7059 119.736 68.5748 121.44L68.5271 121.458ZM69.5104 129.652C68.688 128.574 69.6415 127.126 70.1659 126.047C70.1659 125.165 69.707 124.569 70.0646 123.717C70.2425 123.612 70.4301 123.524 70.6248 123.455C71.0479 123.818 71.2207 124.801 71.3459 125.326C71.3936 126.75 71.03 129.009 69.5581 129.634L69.5104 129.652ZM71.6736 123.002C71.179 121.524 72.788 119.527 73.3423 118.234C73.5449 118.073 73.7058 117.775 73.8369 117.739C73.8419 118.058 73.8638 118.377 73.9025 118.693C73.5568 120.379 73.2588 121.965 71.7213 122.984L71.6736 123.002Z" fill="white"/>
</g>
<defs>
<clipPath id="clip0_36_83">
<rect width="178.781" height="178.781" fill="white"/>
</clipPath>
</defs>
</svg>
