<svg width="95" height="94" viewBox="0 0 95 94" fill="none" xmlns="http://www.w3.org/2000/svg">
<g clip-path="url(#clip0_19_606)">
<path d="M47.6342 7.3877C55.6909 7.3877 63.5667 9.77678 70.2655 14.2528C76.9644 18.7289 82.1856 25.0909 85.2687 32.5343C88.3519 39.9777 89.1586 48.1682 87.5868 56.07C86.015 63.9719 82.1353 71.2302 76.4384 76.9272C70.7415 82.6241 63.4832 86.5037 55.5813 88.0755C47.6794 89.6473 39.4889 88.8406 32.0455 85.7575C24.6021 82.6743 18.2401 77.4532 13.7641 70.7543C9.28804 64.0554 6.89896 56.1796 6.89896 48.123C6.89896 37.3193 11.1907 26.9581 18.83 19.3188C26.4694 11.6794 36.8306 7.3877 47.6342 7.3877Z" stroke="#903603" stroke-width="1.2462" stroke-miterlimit="2.61"/>
<path d="M68.5392 45.8928C68.3291 45.8928 68.1237 45.9551 67.949 46.0719C67.7743 46.1886 67.6381 46.3545 67.5577 46.5487C67.4773 46.7428 67.4563 46.9564 67.4973 47.1625C67.5382 47.3686 67.6394 47.5579 67.788 47.7064C67.9366 47.855 68.1259 47.9562 68.332 47.9972C68.538 48.0382 68.7517 48.0171 68.9458 47.9367C69.1399 47.8563 69.3058 47.7202 69.4226 47.5454C69.5393 47.3707 69.6016 47.1653 69.6016 46.9552C69.6016 46.6734 69.4897 46.4032 69.2904 46.204C69.0912 46.0048 68.821 45.8928 68.5392 45.8928ZM68.3492 47.0393C68.2876 47.0393 68.2273 47.0211 68.1761 46.9868C68.1249 46.9526 68.0849 46.9039 68.0613 46.847C68.0378 46.7901 68.0316 46.7274 68.0436 46.667C68.0556 46.6066 68.0853 46.5511 68.1289 46.5075C68.1725 46.4639 68.228 46.4342 68.2884 46.4222C68.3488 46.4102 68.4115 46.4164 68.4684 46.4399C68.5253 46.4635 68.574 46.5035 68.6082 46.5547C68.6425 46.6059 68.6607 46.6662 68.6607 46.7278C68.6607 46.8104 68.6279 46.8897 68.5695 46.9481C68.5111 47.0065 68.4318 47.0393 68.3492 47.0393Z" fill="#903603"/>
<path d="M26.7135 45.9202C26.5034 45.9202 26.298 45.9825 26.1233 46.0992C25.9486 46.2159 25.8124 46.3819 25.732 46.576C25.6516 46.7701 25.6306 46.9837 25.6716 47.1898C25.7126 47.3959 25.8137 47.5852 25.9623 47.7338C26.1109 47.8824 26.3002 47.9835 26.5063 48.0245C26.7124 48.0655 26.926 48.0445 27.1201 47.9641C27.3142 47.8837 27.4801 47.7475 27.5969 47.5728C27.7136 47.3981 27.7759 47.1927 27.7759 46.9826C27.7759 46.7008 27.664 46.4306 27.4648 46.2313C27.2655 46.0321 26.9953 45.9202 26.7135 45.9202ZM26.9192 47.0386C26.8575 47.0386 26.7973 47.0204 26.7461 46.9861C26.6948 46.9519 26.6549 46.9032 26.6313 46.8463C26.6077 46.7894 26.6016 46.7267 26.6136 46.6663C26.6256 46.6059 26.6553 46.5504 26.6989 46.5068C26.7424 46.4632 26.798 46.4335 26.8584 46.4215C26.9188 46.4095 26.9815 46.4157 27.0384 46.4392C27.0953 46.4628 27.144 46.5028 27.1782 46.554C27.2124 46.6052 27.2307 46.6655 27.2307 46.7271C27.2307 46.8097 27.1979 46.889 27.1395 46.9474C27.081 47.0058 27.0018 47.0386 26.9192 47.0386Z" fill="#903603"/>
<path d="M47.6342 11.1544C37.83 11.1569 28.428 15.0525 21.4951 21.9848C14.5622 28.9172 10.6658 38.3188 10.6625 48.123C10.6658 57.9273 14.5622 67.3289 21.4951 74.2613C28.428 81.1936 37.83 85.0892 47.6342 85.0917C57.4385 85.0892 66.8404 81.1936 73.7734 74.2613C80.7063 67.3289 84.6027 57.9273 84.606 48.123C84.6027 38.3188 80.7063 28.9172 73.7734 21.9848C66.8404 15.0525 57.4385 11.1569 47.6342 11.1544ZM47.6342 10.6653C52.5533 10.6653 57.4241 11.6342 61.9687 13.5166C66.5133 15.399 70.6426 18.1581 74.1209 21.6364C77.5991 25.1147 80.3583 29.244 82.2407 33.7886C84.1231 38.3332 85.092 43.204 85.092 48.123C85.0928 53.0423 84.1245 57.9135 82.2424 62.4585C80.3602 67.0034 77.6011 71.1331 74.1227 74.6115C70.6443 78.0899 66.5146 80.849 61.9697 82.7312C57.4247 84.6133 52.5535 85.5816 47.6342 85.5808C37.6998 85.5808 28.1723 81.6344 21.1476 74.6097C14.1229 67.585 10.1765 58.0575 10.1765 48.123C10.1781 38.1891 14.1251 28.6626 21.1494 21.6382C28.1738 14.6139 37.7003 10.6669 47.6342 10.6653Z" fill="#903603"/>
<path d="M26.5827 22.2393C20.3521 27.3122 16.1561 34.4588 14.7625 42.3717" stroke="#903603" stroke-width="1.8693" stroke-miterlimit="2.61"/>
<path d="M45.4035 14.8062C40.4187 15.233 34.6643 16.9185 30.3493 19.5853" stroke="#903603" stroke-width="1.8693" stroke-miterlimit="2.61"/>
<path d="M54.4884 15.46C53.1657 15.186 51.8278 14.9914 50.4818 14.8774" stroke="#903603" stroke-width="1.8693" stroke-miterlimit="2.61"/>
<path d="M80.8455 45.5309C80.3524 39.2743 78.1076 33.2828 74.3681 28.2425C70.6286 23.2021 65.5455 19.3164 59.7006 17.0303" stroke="#903603" stroke-width="1.8693" stroke-miterlimit="2.61"/>
<path d="M47.6342 10.6653C52.5533 10.6653 57.4241 11.6342 61.9687 13.5166C66.5133 15.399 70.6426 18.1581 74.1209 21.6364C77.5991 25.1147 80.3583 29.244 82.2407 33.7886C84.1231 38.3332 85.092 43.204 85.092 48.123C85.0928 53.0423 84.1245 57.9135 82.2424 62.4585C80.3602 67.0034 77.6011 71.1331 74.1227 74.6115C70.6443 78.0899 66.5146 80.849 61.9697 82.7312C57.4247 84.6133 52.5535 85.5816 47.6342 85.5808C37.6998 85.5808 28.1723 81.6344 21.1476 74.6097C14.1229 67.585 10.1765 58.0575 10.1765 48.123C10.1781 38.1891 14.1251 28.6626 21.1494 21.6382C28.1738 14.6139 37.7003 10.6669 47.6342 10.6653Z" stroke="#903603" stroke-width="0.155775" stroke-miterlimit="2.61"/>
<path d="M27.1684 70.1934L28.4177 71.9162L30.4397 71.2589L29.1904 72.9786L30.4397 74.6984L28.4177 74.0379L27.1684 75.7608V73.6329L25.1465 72.9786L27.1684 72.3213V70.1934Z" fill="#903603"/>
<path d="M67.7479 70.5454L66.5017 72.2683L64.4797 71.6078L65.7259 73.3307L64.4797 75.0473L66.5017 74.3931L67.7479 76.1128V73.988L69.773 73.3307L67.7479 72.6702V70.5454Z" fill="#903603"/>
<path d="M47.9737 26.4177H47.2945V46.4785H47.9737V26.4177Z" fill="#903603"/>
<path d="M43.2008 25.4204C43.3687 25.8739 43.451 26.3545 43.4438 26.838C43.4463 27.1693 43.4097 27.4998 43.3348 27.8225C44.5564 27.5191 45.8211 27.4284 47.0734 27.5546L45.983 25.1774C45.4596 25.1774 44.9549 25.1992 44.472 25.246C43.9891 25.2927 43.609 25.3457 43.1946 25.4204M42.26 28.1185C42.2169 27.6836 42.0922 27.2608 41.8923 26.8723C41.7143 26.5251 41.4806 26.2094 41.2007 25.9376C39.8325 26.3995 38.558 27.1022 37.4371 28.0125L37.2564 28.1652L37.0851 28.3147C36.8059 28.5614 36.5406 28.8236 36.2906 29.0999C34.8295 30.4831 33.0194 31.3243 31.3744 32.0876C30.3978 32.4983 29.4595 32.9946 28.5704 33.5706C29.4517 33.2627 30.3588 33.0343 31.2809 32.8883C33.0349 32.5768 34.8606 32.2341 37.1661 30.4863L37.1973 30.4676C38.7986 29.5065 40.4978 28.7191 42.2662 28.1185M41.6618 25.7912C41.903 26.0655 42.1073 26.3703 42.2693 26.6978C42.4809 27.103 42.6221 27.5413 42.6868 27.9938L42.855 27.9471C42.9699 27.5888 43.0267 27.2143 43.0232 26.838C43.0289 26.3811 42.9431 25.9278 42.7709 25.5046C42.3877 25.5887 42.0169 25.6821 41.6618 25.7912ZM46.0764 24.7568H46.1325L46.3195 24.8783L47.6155 27.7041L47.6404 27.835C47.6366 27.8618 47.6275 27.8876 47.6137 27.9109C47.5999 27.9342 47.5816 27.9546 47.5599 27.9708C47.5382 27.987 47.5135 27.9988 47.4872 28.0054C47.4609 28.012 47.4336 28.0134 47.4068 28.0094C45.7297 27.7863 44.0237 27.9537 42.422 28.4986C40.6737 29.0892 38.9941 29.8663 37.4122 30.8165C35.0413 32.6173 33.1564 32.9724 31.3588 33.3089C30.097 33.5457 28.8664 33.7731 27.5703 34.5115H27.3429L27.3055 34.2186C28.1187 33.1656 29.5736 32.4895 31.1906 31.7262C32.8075 30.9629 34.5896 30.1529 35.9978 28.8132C36.247 28.5422 36.5181 28.2711 36.814 28.0063L36.9916 27.8505L37.1786 27.6948C38.8496 26.3488 40.8292 25.4399 42.9391 25.0497C43.4158 24.9562 43.9174 24.8846 44.4408 24.8347C44.9642 24.7849 45.5032 24.7568 46.0764 24.7568Z" fill="#903603"/>
<path d="M37.0414 28.0872C37.056 28.3848 37.1009 28.6803 37.1754 28.9688C37.292 29.4718 37.5081 29.9464 37.8109 30.3646L38.1941 30.1559C37.8987 29.7765 37.6864 29.3391 37.571 28.8723C37.4748 28.5014 37.4391 28.1174 37.4651 27.7351L37.3062 27.8628L37.032 28.0965" fill="#903603"/>
<path d="M36.1535 28.95C36.2051 29.1622 36.2718 29.3704 36.3529 29.5731C36.5281 30.0259 36.7858 30.4421 37.1131 30.8006L37.2938 30.6636L37.4807 30.5576C37.1537 30.2268 36.8982 29.8323 36.7299 29.3987C36.6221 29.1341 36.5447 28.8582 36.4994 28.5762C36.3747 28.7008 36.2564 28.8254 36.1442 28.95" fill="#903603"/>
<path d="M31.0752 33.0037L47.5968 39.8453L47.4628 40.1756L30.9413 33.3339L31.0752 33.0037Z" fill="#903603"/>
<path d="M30.692 32.2778L31.0067 33.1689L28.0407 33.9135L28.4364 33.3496L30.692 32.2778Z" fill="#903603"/>
<path d="M52.0675 25.4204C51.9024 25.8745 51.8211 26.3548 51.8277 26.838C51.8258 27.1691 51.8613 27.4994 51.9336 27.8225C50.712 27.5191 49.4473 27.4284 48.195 27.5546L49.2885 25.1774C49.8088 25.1774 50.3104 25.1992 50.7964 25.246C51.2357 25.2865 51.6594 25.3457 52.0738 25.4204M53.0084 28.1185C53.0514 27.6832 53.1772 27.2602 53.3792 26.8723C53.5551 26.5246 53.7878 26.2087 54.0677 25.9376C55.4358 26.3995 56.7104 27.1022 57.8312 28.0125L58.0119 28.1652L58.1833 28.3147C58.4761 28.5764 58.741 28.8413 58.9777 29.0999C60.4358 30.4831 62.2459 31.3243 63.8909 32.0876C64.8667 32.4998 65.8049 32.996 66.6949 33.5706C65.8125 33.2627 64.9043 33.0343 63.9813 32.8883C62.2334 32.5768 60.4078 32.2341 58.1023 30.4863L58.0711 30.4676C56.4698 29.5065 54.7706 28.7191 53.0022 28.1185M53.6066 25.7912C53.361 26.0655 53.1516 26.3702 52.9835 26.6978C52.7755 27.1043 52.6355 27.5421 52.5691 27.9938L52.4009 27.9471C52.286 27.5888 52.2292 27.2143 52.2327 26.838C52.2271 26.3811 52.3129 25.9278 52.485 25.5046C52.8713 25.5887 53.239 25.6821 53.5941 25.7912M49.1919 24.7568H49.139L48.9489 24.8783L47.6529 27.7041L47.6248 27.835C47.6333 27.8894 47.6629 27.9383 47.7073 27.971C47.7516 28.0037 47.8071 28.0175 47.8616 28.0094C49.5387 27.7863 51.2447 27.9537 52.8464 28.4986C54.5944 29.0898 56.2739 29.8669 57.8562 30.8165C60.2271 32.6173 62.1119 32.9724 63.9096 33.3089C65.1745 33.5457 66.402 33.7731 67.698 34.5115H67.9255L67.966 34.2186C67.1497 33.1656 65.6948 32.4895 64.0778 31.7262C62.4609 30.9629 60.6788 30.1529 59.2706 28.807C59.0214 28.5359 58.7503 28.2649 58.4575 28.0001L58.2768 27.8443L58.0898 27.6885C56.4188 26.3426 54.4391 25.4336 52.3293 25.0435C51.8526 24.95 51.351 24.8783 50.8276 24.8285C50.3042 24.7786 49.7652 24.7568 49.1919 24.7568Z" fill="#903603"/>
<path d="M58.227 28.0872C58.2123 28.3848 58.1675 28.6803 58.093 28.9688C57.9763 29.4718 57.7602 29.9464 57.4574 30.3646L57.0742 30.1559C57.3697 29.7765 57.582 29.3391 57.6973 28.8723C57.7935 28.5014 57.8293 28.1174 57.8032 27.7351L57.9621 27.8628L58.2363 28.0965" fill="#903603"/>
<path d="M59.1147 28.95C59.0643 29.1621 58.9987 29.3704 58.9185 29.5731C58.7411 30.0255 58.4824 30.4415 58.1552 30.8006L57.9745 30.6636L57.7875 30.5576C58.1146 30.2268 58.3701 29.8323 58.5384 29.3987C58.6476 29.1346 58.725 28.8585 58.7689 28.5762C58.8935 28.7008 59.0119 28.8254 59.1241 28.95" fill="#903603"/>
<path d="M64.1931 33.0037L47.6716 39.8453L47.8055 40.1756L64.3302 33.3339L64.1931 33.0037Z" fill="#903603"/>
<path d="M64.5763 32.2778L64.2616 33.1689L67.2276 33.9135L66.8319 33.3496L64.5763 32.2778Z" fill="#903603"/>
<path d="M45.5467 24.9936L47.3942 21.903C47.433 21.8402 47.4947 21.7949 47.5662 21.7769C47.6378 21.7589 47.7136 21.7694 47.7774 21.8064L47.8771 21.9123L49.7215 24.9936V25.2802L47.874 28.3676C47.8353 28.4305 47.7736 28.4757 47.702 28.4937C47.6305 28.5117 47.5547 28.5012 47.4908 28.4642L47.3942 28.3676L45.5467 25.2802V24.9936Z" fill="#903603"/>
<path d="M47.6342 22.5886L46.1107 25.1371L47.6342 27.6856L49.1608 25.1371L47.6342 22.5886Z" fill="#903603"/>
<path d="M50.2294 74.2935C52.2389 65.2959 47.2853 63.6104 49.8338 53.5536C49.8743 53.3853 49.9148 53.214 49.9459 53.0426C49.9771 52.8713 50.0113 52.6999 50.0394 52.5286C50.1058 52.0694 50.1401 51.6061 50.1422 51.1422C50.1765 49.2511 50.2045 47.765 51.7591 46.4689C52.3122 46.0149 52.9092 45.6173 53.5412 45.2819C58.9217 42.3658 67.6233 42.3284 71.8324 37.8608C71.2027 36.3788 70.4372 34.9583 69.5456 33.6174C66.1559 39.8017 53.1268 36.8856 47.5594 43.9142C41.8705 36.4027 29.2901 39.5712 25.7291 33.605C24.8424 34.9396 24.0801 36.3526 23.4516 37.8265C30.7326 44.1759 37.6833 40.7644 43.1915 46.6403C45.0265 48.3538 45.4129 50.5565 45.0608 53.0395C44.6745 55.7905 44.3006 58.0711 44.338 60.6414C44.3629 62.2521 44.4034 63.6478 45.0172 65.1059C46.0297 67.5048 46.2977 71.3369 44.7835 74.2655C45.7304 74.3668 46.6819 74.4177 47.6342 74.4181C48.5097 74.4181 49.3727 74.3745 50.2294 74.2904" fill="#903603"/>
<path d="M47.6342 21.8409C40.6642 21.8426 33.9801 24.6121 29.0516 29.5407C24.123 34.4692 21.3534 41.1533 21.3518 48.1234C21.3526 55.0939 24.1218 61.7788 29.0505 66.708C33.9791 71.6372 40.6637 74.4072 47.6342 74.4089C54.6048 74.4072 61.2893 71.6372 66.218 66.708C71.1466 61.7788 73.9158 55.0939 73.9167 48.1234C73.915 41.1533 71.1454 34.4692 66.2169 29.5407C61.2883 24.6121 54.6042 21.8426 47.6342 21.8409ZM47.6342 21.3643C51.1484 21.3638 54.6282 22.0557 57.875 23.4003C61.1217 24.745 64.0718 26.716 66.5567 29.2009C69.0416 31.6858 71.0126 34.6359 72.3572 37.8826C73.7019 41.1294 74.3937 44.6092 74.3933 48.1234C74.3925 55.2201 71.573 62.0259 66.5549 67.044C61.5367 72.0621 54.7309 74.8816 47.6342 74.8824C44.1203 74.8824 40.6408 74.1903 37.3944 72.8455C34.148 71.5007 31.1983 69.5296 28.7138 67.0447C26.2292 64.5598 24.2585 61.6099 22.914 58.3634C21.5696 55.1168 20.8778 51.6373 20.8782 48.1234C20.8778 44.6096 21.5696 41.1302 22.9141 37.8838C24.2585 34.6374 26.2294 31.6877 28.714 29.2031C31.1986 26.7185 34.1483 24.7477 37.3947 23.4032C40.641 22.0587 44.1205 21.367 47.6342 21.3674V21.3643Z" fill="#903603" stroke="#903603" stroke-width="0.311551"/>
<path d="M16.7595 36.7263C17.1416 36.4752 17.606 36.3815 18.0556 36.4646C18.4938 36.5913 18.8054 36.9829 18.9902 37.6392C19.5884 37.1449 20.1274 36.9694 20.6072 37.1127C20.797 37.1748 20.9691 37.2817 21.109 37.4243C21.2489 37.5669 21.3525 37.741 21.411 37.932C21.5904 38.4475 21.5904 39.0086 21.411 39.5241C21.2581 40.036 20.9834 40.5032 20.6103 40.8855C20.2323 41.276 19.0587 41.8835 17.0897 42.7081L17.0368 42.0352C17.8629 41.6708 18.6652 41.2545 19.4388 40.789C19.7973 40.5477 20.0598 40.1883 20.1803 39.7733C20.2962 39.4378 20.3082 39.0751 20.2146 38.7327C20.1897 38.6107 20.134 38.4971 20.0527 38.4028C19.9714 38.3084 19.8674 38.2365 19.7504 38.1937C19.6323 38.1632 19.5089 38.1588 19.3889 38.1808C19.2689 38.2029 19.1552 38.2509 19.0556 38.3215C19.0025 38.6519 18.9286 38.9786 18.8344 39.2998C18.769 39.521 18.6568 39.8512 18.4917 40.2936L17.2829 40.1908C17.42 39.8387 17.5353 39.5085 17.6256 39.1969C17.9642 38.0567 17.8749 37.4097 17.3577 37.256C17.1396 37.1937 16.6006 37.5675 16.3451 37.8417L16.7595 36.7263Z" fill="#903603"/>
<path d="M20.8096 28.8352L25.5732 31.7202L25.4205 31.9694L23.8815 32.443L21.953 31.2622L21.0495 32.7358C20.6164 33.443 20.6725 33.9633 21.2115 34.2936C21.6581 34.5636 22.5034 34.4545 23.7475 33.9664L23.8316 34.5646C22.1513 35.248 20.9218 35.3518 20.1429 34.8762C19.9693 34.7758 19.8179 34.6412 19.698 34.4805C19.578 34.3198 19.4919 34.1365 19.445 33.9415C19.3992 33.7572 19.3913 33.5655 19.4219 33.3781C19.4524 33.1906 19.5207 33.0113 19.6226 32.8511L20.9654 30.6702L20.093 30.1655L20.8096 28.8352Z" fill="#903603"/>
<path d="M24.8598 24.2271C25.2184 24.4076 25.5516 24.635 25.8505 24.9031C26.4861 25.5387 26.6585 26.3549 26.3677 27.3519C27.5522 27.1902 28.7243 26.9477 29.8757 26.626L29.8103 27.2491C26.4518 28.0799 24.5254 28.2533 24.031 27.7694C23.7133 27.4537 23.7527 27.0964 24.1494 26.6976C24.4255 26.4523 24.7416 26.2563 25.0841 26.1182C25.0515 25.8663 24.9428 25.6304 24.7725 25.4421C24.551 25.3051 24.3075 25.2071 24.0528 25.1524L24.8598 24.2271Z" fill="#903603"/>
<path d="M36.0663 16.9338L38.4466 22.2302L38.1786 22.3517L36.6209 21.8844L36.113 20.7472C35.8706 21.0244 35.5708 21.2455 35.2345 21.3952C34.6715 21.6298 34.053 21.698 33.4524 21.5915C32.767 21.4918 32.3464 21.28 32.1875 20.9279L31.5395 19.4605L36.0663 16.9338ZM35.5865 19.5353L34.8388 17.7906L32.9196 18.8374L33.7359 20.6538C33.7591 20.7339 33.8005 20.8076 33.8568 20.8691C33.9132 20.9306 33.9829 20.9783 34.0607 21.0085C34.1385 21.0386 34.2222 21.0504 34.3053 21.0429C34.3883 21.0354 34.4686 21.0089 34.5397 20.9653C34.6569 20.9043 34.7623 20.8231 34.8513 20.7254C35.1277 20.3489 35.3735 19.951 35.5865 19.5353Z" fill="#903603"/>
<path d="M42.989 15.3389L43.799 17.4979L41.5309 17.9341C41.1633 17.9944 40.8159 18.143 40.5184 18.3671C40.4067 18.4328 40.3161 18.529 40.2571 18.6443C40.198 18.7596 40.173 18.8893 40.185 19.0183C40.2567 19.3859 40.5745 19.5168 41.1384 19.4077C41.3445 19.366 41.5468 19.3066 41.7428 19.2301C41.7246 19.1254 41.7357 19.0176 41.7747 18.9187C41.8137 18.8198 41.8792 18.7335 41.964 18.6693C42.1954 18.4819 42.4731 18.3603 42.7678 18.3173C43.108 18.2352 43.465 18.2569 43.7928 18.3796C43.911 18.4165 44.0179 18.4831 44.103 18.5731C44.1881 18.6631 44.2486 18.7735 44.2788 18.8937C44.3504 19.2706 44.1417 19.5822 43.6557 19.8283L45.1418 20.5324L44.1106 20.9187L42.6494 20.2178C41.6462 20.4109 40.8362 20.3195 40.2193 19.9436C39.9531 19.8083 39.7189 19.6177 39.5324 19.3845C39.346 19.1513 39.2116 18.8809 39.1382 18.5915C39.1002 18.4091 39.1088 18.2202 39.1632 18.0421C39.2177 17.864 39.3163 17.7025 39.4498 17.5727C39.8146 17.2327 40.2763 17.0149 40.7707 16.9496L42.3285 16.6536L42.0948 15.5476L42.989 15.3389Z" fill="#903603"/>
<path d="M65.7664 20.5229L63.1151 25.3955L62.9437 25.3021L62.302 23.7443L63.2553 21.9996C62.7853 21.9528 62.328 21.8197 61.9063 21.6071C61.5127 21.3862 61.151 21.1126 60.8314 20.7939C60.5041 20.9459 60.1569 21.0508 59.8002 21.1055C59.9965 21.7971 60.2987 22.6632 60.7006 23.7443L60.1491 23.7848C59.1584 21.3277 58.8396 19.77 59.1927 19.1115C59.2357 19.0326 59.2952 18.9638 59.3673 18.9101C59.4394 18.8563 59.5222 18.8187 59.6102 18.8C59.7854 18.7523 59.9724 18.7758 60.1304 18.8654C60.3413 18.9938 60.5315 19.1535 60.6943 19.339C60.8467 19.1988 60.9779 19.0371 61.0838 18.8592C61.2018 18.6153 61.2896 18.3579 61.3455 18.0928L65.7664 20.5229ZM64.4579 19.853L62.3425 18.8374C62.2789 19.138 62.1741 19.4285 62.0309 19.7004C61.915 19.9121 61.7668 20.1045 61.5916 20.2705C61.8029 20.5086 62.0525 20.7097 62.33 20.8656C62.5482 21.0064 62.7982 21.0905 63.0572 21.1101C63.3162 21.1296 63.576 21.0842 63.813 20.9777L64.4579 19.853Z" fill="#903603"/>
<path d="M70.4896 24.411C70.3294 24.7793 70.1197 25.1242 69.8665 25.436C69.2579 26.0965 68.4489 26.3042 67.4395 26.0591C67.6489 27.2336 67.9393 28.3922 68.3087 29.5266L67.6856 29.4861C66.7032 26.1629 66.4488 24.2469 66.9223 23.738C67.2339 23.4078 67.5828 23.4265 67.9972 23.8159C68.2598 24.0871 68.4709 24.4038 68.6203 24.7506C68.8715 24.7148 69.105 24.6003 69.287 24.4234C69.4355 24.2032 69.5412 23.9569 69.5985 23.6975L70.4896 24.411Z" fill="#903603"/>
<path d="M75.7361 30.9411L74.6238 31.611C74.8478 31.7599 75.0369 31.9555 75.1784 32.1842C75.3414 32.4295 75.4478 32.7081 75.4899 32.9996C75.5319 33.2911 75.5085 33.5884 75.4214 33.8697C75.2942 34.4084 74.971 34.8804 74.5148 35.1938C74.0152 35.4915 73.4326 35.6194 72.8542 35.5583L73.0349 34.1626C73.7619 34.2602 74.2915 34.201 74.6238 33.985C74.6972 33.9523 74.7619 33.903 74.8129 33.8409C74.8639 33.7789 74.8997 33.7058 74.9175 33.6275C74.9353 33.5492 74.9347 33.4678 74.9156 33.3898C74.8966 33.3118 74.8596 33.2393 74.8076 33.1781C74.683 32.9849 74.2624 32.6921 73.5459 32.2995L70.9538 33.957L70.8136 33.7389L71.0472 32.1001L72.0224 31.477C71.6243 31.2748 71.2754 30.9876 71.0005 30.6358C70.8807 30.4413 70.8013 30.2246 70.767 29.9987C70.7327 29.7729 70.7443 29.5424 70.8011 29.3211C70.85 29.0796 70.9483 28.8509 71.0898 28.6493C71.2314 28.4477 71.4131 28.2776 71.6236 28.1496C72.2654 27.7384 72.8168 27.8911 73.2717 28.6045C73.5794 29.1696 73.7045 29.8161 73.63 30.4551L74.9292 29.6949L75.7361 30.9411ZM73.1533 30.7636L73.2343 30.7137C73.1667 30.3842 73.0446 30.0683 72.8729 29.7791C72.714 29.5209 72.5015 29.2999 72.2498 29.131C72.1615 29.0549 72.0517 29.0081 71.9357 28.9969C71.8196 28.9858 71.703 29.0108 71.6018 29.0687C71.5504 29.1027 71.5083 29.149 71.4794 29.2034C71.4506 29.2579 71.4359 29.3187 71.4367 29.3803C71.4261 29.5271 71.4657 29.6732 71.5488 29.7946C71.7628 30.1332 72.2976 30.4562 73.1533 30.7636Z" fill="#903603"/>
<path d="M78.7705 37.5558L73.4742 39.4251L73.39 39.1945L73.9602 37.6368L78.2471 36.1257L78.7705 37.5558Z" fill="#903603"/>
<path d="M80.1757 43.241C79.8069 43.4306 79.4153 43.5719 79.0105 43.6616C78.1278 43.8133 77.3624 43.482 76.7143 42.6678C76.1658 43.7256 75.6901 44.8196 75.2906 45.9422L74.8326 45.5372C76.0788 42.3054 77.0436 40.6303 77.7269 40.5119C78.1693 40.4371 78.4372 40.677 78.5338 41.2315C78.5748 41.6007 78.5495 41.9742 78.459 42.3344C78.6802 42.4567 78.9334 42.5089 79.1849 42.484C79.4734 42.3837 79.7438 42.2375 79.9856 42.0509L80.1757 43.241Z" fill="#903603"/>
<path d="M38.1973 13.1949L39.297 13.0983C39.6392 13.0831 39.9811 13.1349 40.3033 13.251C40.6955 13.3772 41.0594 13.5782 41.3751 13.8429C42.0475 14.3046 42.6223 14.8943 43.0668 15.5782L42.4437 16.1079C41.9535 15.4225 41.642 14.9988 41.509 14.8368C41.3227 14.6467 41.0895 14.5092 40.833 14.438C40.4797 14.3275 40.1071 14.2924 39.7394 14.3352L38.6646 14.4286L38.1973 13.1949Z" fill="#903603"/>
<path d="M34.7578 21.1615C34.8845 20.987 35.1618 20.5363 35.5896 19.8093L36.4838 20.0399C35.7579 21.311 33.8761 23.8906 33.5926 23.8906L32.714 23.3049C32.714 23.3049 34.63 21.3297 34.7578 21.1615Z" fill="#903603"/>
<path d="M46.8303 14.2545C46.5873 14.3634 46.3792 14.5375 46.2291 14.7575C46.079 14.9775 45.9927 15.2347 45.9798 15.5007C45.9798 15.7686 46.1418 16.0303 46.5001 16.2858C46.8909 16.5491 47.3471 16.699 47.8179 16.7188C48.0252 16.7376 48.2337 16.7376 48.441 16.7188C48.1917 17.1451 47.8627 17.5196 47.4721 17.8217C47.3473 17.6302 47.1829 17.4677 46.9899 17.3452C46.797 17.2227 46.58 17.1429 46.3536 17.1114C46.1429 17.0889 45.9318 17.1493 45.7648 17.2796C45.6835 17.3492 45.6171 17.4345 45.5695 17.5303C45.5218 17.6261 45.494 17.7305 45.4875 17.8373C45.482 17.9793 45.5099 18.1206 45.5689 18.2499C45.6278 18.3793 45.7163 18.4929 45.8271 18.5819C46.1032 18.8074 46.446 18.9355 46.8023 18.9464C47.0105 18.9586 47.2194 18.9481 47.4254 18.9153L48.8803 20.7534L49.6093 20.5727L48.1731 18.7034C49.3196 18.2319 49.9271 17.505 49.9957 16.5226C50.0302 15.8802 49.826 15.2477 49.4224 14.7467C49.1457 14.4313 48.7679 14.222 48.3538 14.1548C47.8468 14.042 47.3182 14.0766 46.8303 14.2545ZM48.6778 16.1238C48.6167 16.1925 48.5412 16.2469 48.4566 16.2829C48.372 16.319 48.2805 16.336 48.1887 16.3325C48.1038 16.3262 48.021 16.3031 47.945 16.2646C47.8691 16.2261 47.8015 16.1729 47.7463 16.1082C47.6867 16.0357 47.6423 15.9521 47.6156 15.8622C47.5888 15.7723 47.5803 15.678 47.5905 15.5848C47.6216 15.1362 47.74 14.89 48.1606 14.7405C48.3231 14.707 48.4919 14.721 48.6466 14.781C48.7555 14.8564 48.8399 14.9622 48.8892 15.0852C48.9385 15.2081 48.9505 15.3429 48.9239 15.4726C48.9275 15.7149 48.8396 15.9497 48.6778 16.13V16.1238Z" fill="#903603"/>
<path d="M51.4383 15.2668L51.136 19.8311L52.295 20.9807L52.563 20.9994L52.9648 15.0581L51.4383 15.2668Z" fill="#903603"/>
<path d="M21.1523 30.3401L21.7069 30.6516C20.981 31.9228 19.1646 35.0133 18.9029 35.4121L18.2549 34.9978C18.2549 34.9978 20.738 31.066 21.1523 30.3401Z" fill="#903603"/>
<path d="M72.8854 48.9926C72.7154 48.7948 72.4877 48.6553 72.2342 48.5938C71.9476 48.5439 71.9476 48.0423 71.8666 47.7588L71.5146 46.8086C71.3368 46.4007 71.096 46.0233 70.8011 45.6901C70.4117 44.9046 69.8924 44.1905 69.2652 43.5778C66.7572 41.235 64.5919 40.4062 68.695 43.6027C69.1405 44.2508 69.6546 44.8489 70.0472 45.553C70.9039 46.2385 71.1781 47.4566 71.4367 48.4847C71.2653 49.2044 70.7326 49.22 70.1188 49.4599L68.6608 49.6655C66.8228 49.696 64.9864 49.5468 63.1775 49.22C62.9376 49.1016 62.6946 48.9988 62.4391 48.9085C62.3257 48.7393 62.1997 48.5789 62.0621 48.4287C62.0023 47.7617 62.1172 47.0906 62.3955 46.4815C62.6821 45.8584 64.028 43.4688 64.5421 43.6775C64.6146 43.6955 64.68 43.7348 64.73 43.7903C64.78 43.8458 64.8122 43.9151 64.8224 43.9891C64.7539 44.8801 64.7009 46.3039 65.2524 47.0734C65.3446 47.0764 65.4364 47.0878 65.5266 47.1077C65.7135 46.5438 65.3708 45.7711 65.3365 45.173C65.3521 44.7461 65.3708 44.3318 65.3708 43.9268C65.5826 42.5217 65.9285 42.1385 66.4082 41.6462L66.1621 41.6929C65.8066 41.8495 65.5107 42.116 65.3178 42.4531C65.2181 42.5248 65.0748 42.6151 64.9284 42.7211C64.3602 43.1837 63.8271 43.6877 63.3332 44.229C62.4235 45.1636 61.7007 46.9488 61.2085 47.7464C61.0028 47.9551 60.7941 48.1763 60.5854 48.4006C60.1554 49.1702 60.7723 49.4973 60.7723 50.298C60.7037 50.3852 60.6352 50.4724 60.548 50.5721C60.1897 50.7341 59.5012 51.1952 59.6351 51.5504C59.7504 51.862 60.0775 51.809 60.3299 51.8308C60.4943 51.8505 60.6597 51.8609 60.8253 51.862C60.7112 51.7579 60.6263 51.6258 60.5791 51.4787C60.467 51.1672 60.5324 51.1049 60.8066 50.9553C61.2401 50.7323 61.7112 50.5918 62.1961 50.541C62.3145 50.4724 62.4173 50.4039 62.5076 50.3509C63.0061 50.3509 63.3488 50.5908 63.7912 50.7279C64.0654 50.7279 64.4455 50.6594 64.648 50.865C64.9751 50.6251 65.2337 50.7809 65.4736 51.0208C65.9347 50.9522 66.4301 50.7092 66.8943 50.8837C67.561 50.8151 68.3149 51.0893 68.9505 51.242C69.3294 51.4293 69.7433 51.5354 70.1655 51.5535C70.4584 51.675 70.7513 51.7934 71.041 51.9305C71.5364 51.999 72.2405 52.4103 71.6921 52.9586C70.9382 52.7717 70.1998 52.3355 69.4646 52.024C68.8317 51.8763 68.2076 51.6932 67.5953 51.4756H66.483C65.2898 51.5348 63.056 51.1454 62.168 51.3728C61.7675 51.4102 61.3712 51.4842 60.9841 51.594L60.8315 51.8526C60.9343 52.1268 61.0184 52.4009 61.1056 52.6907V54.507C60.9499 55.3451 60.7941 56.205 60.6227 57.0617C60.1348 57.8991 59.4382 58.5958 58.6008 59.0837C58.3609 59.0837 58.1241 59.0993 57.8655 59.118C57.5072 58.9466 57.3172 58.4139 56.853 58.5852C56.5414 59.0152 56.9745 59.8314 56.6162 60.1804C56.3699 60.1521 56.1344 60.0632 55.9308 59.9218C55.775 59.5946 55.6192 59.2987 55.4666 58.9871C54.6441 59.28 54.8435 60.2333 54.6597 60.9405C54.5755 61.0091 54.4914 61.0776 54.3886 61.1462C54.3886 61.2334 54.4229 61.3175 54.4385 61.4203C54.7812 61.6446 55.1737 61.7973 55.261 62.2241C55.1581 62.4983 55.0553 62.894 54.7967 63.0653C55.3638 63.4766 55.451 64.4548 55.3295 65.0873C55.1737 65.1558 54.9183 65.2586 54.8497 65.3988L54.3356 65.5546C53.843 65.9294 53.4731 66.4424 53.2733 67.0282C53.0266 67.4549 52.848 67.9174 52.7436 68.3991L52.9648 68.4489C52.9955 68.2389 53.078 68.0397 53.2047 67.8694C53.2546 67.6264 53.3075 67.4052 53.3605 67.184C53.7032 67.0096 53.9057 66.5983 54.0958 66.2743C54.3308 66.1189 54.5409 65.9288 54.7189 65.7104C55.0347 65.6072 55.3649 65.5546 55.6971 65.5546C56.124 65.7602 56.0741 65.7104 56.0741 66.2213L55.451 66.6326L54.3014 67.7822C54.0615 68.4832 53.7188 69.153 53.616 69.8883C53.6534 70.2497 53.6845 70.6267 53.7188 71.0005C53.806 71.3121 53.9929 71.6859 53.6845 71.8916C52.538 71.7046 52.2483 70.231 51.971 69.3057C51.7373 67.3554 51.971 66.5017 53.1891 65.1247C53.4633 64.8879 53.6502 64.8131 53.7032 64.4424C51.9274 63.8193 49.706 59.7691 52.5723 57.7253C53.5817 57.4138 53.0521 58.9715 53.0022 59.4389C53.0521 59.6289 53.0863 59.8158 53.1206 60.0059C53.2577 60.2115 53.3761 60.4171 53.4976 60.629C53.7026 60.7255 53.8884 60.8585 54.0459 61.0215L54.0802 60.819C53.7188 60.6446 53.5474 59.928 53.4789 59.5323C53.3948 58.3858 53.8559 57.4418 54.9525 57.1178L55.1083 56.9122C54.5569 56.5072 53.8621 56.638 53.186 56.9122C52.332 57.1976 51.5882 57.7421 51.0581 58.4699C50.7714 58.8296 50.5721 59.251 50.4759 59.7007C50.3796 60.1505 50.3891 60.6165 50.5036 61.062C50.8151 62.489 51.4912 62.9781 52.161 63.866C52.4417 63.9782 52.672 64.1886 52.8091 64.458C52.996 64.9253 52.6284 65.1091 52.3324 65.3739C52.2741 65.4821 52.2085 65.5862 52.1361 65.6855C51.5476 66.5241 51.2449 67.53 51.273 68.5541C51.3011 69.5783 51.6583 70.5661 52.2919 71.3713C52.8525 72.1237 53.6733 72.6402 54.5942 72.82C56.0367 73.1315 54.7812 72.2935 54.5257 70.6235V69.8883C54.6814 69.4693 54.786 69.0331 54.8372 68.5891C55.1955 68.0221 55.3513 67.6108 55.5071 67.371C55.7781 67.1996 56.0367 67.0282 56.2953 66.8725C56.7408 67.1311 56.6879 67.2837 56.7221 67.8663C56.9314 68.4607 57.2637 69.0042 57.6973 69.4615C58.2456 69.8197 58.554 69.8197 59.1896 69.773L59.3423 69.5144C59.308 69.4116 59.2768 69.3244 59.2395 69.2403C58.7098 68.4863 58.5042 67.7666 59.2582 67.0127C59.4324 67.3219 59.6794 67.5839 59.9778 67.776C60.7629 68.2246 61.224 68.1903 62.1587 68.2838C62.8534 68.3555 63.3177 68.5112 62.7413 67.5797C61.8347 66.9784 61.9531 66.3335 62.1587 65.3334C62.4805 64.9176 62.8715 64.5604 63.3145 64.2773C66.0905 62.4266 69.3399 60.2925 71.0317 56.2766C71.4388 55.3667 71.7056 54.4003 71.823 53.4104C72.0785 53.2733 72.4679 53.3325 72.6393 53.1518C73.3184 52.4165 72.2 52.052 71.9819 51.5348C71.9253 51.3903 71.9071 51.2336 71.9289 51.08C71.951 50.8726 72.0247 50.6741 72.1434 50.5027C72.2621 50.3312 72.4218 50.1923 72.6081 50.0986C72.7757 50.0187 72.9228 49.9015 73.038 49.7559C73.0948 49.6285 73.1106 49.4866 73.0833 49.3499C73.0559 49.2132 72.9868 49.0883 72.8854 48.9926ZM61.7911 49.6312C61.6539 49.596 61.5265 49.53 61.4185 49.4382C61.3106 49.3464 61.2249 49.2313 61.168 49.1016C61.2365 48.9988 61.2552 48.8773 61.4079 48.8773C61.8876 49.0673 62.2148 49.1016 62.2989 49.6655C62.1305 49.6438 61.9609 49.6323 61.7911 49.6312ZM70.8541 50.3322C70.4615 50.298 70.0658 50.2824 69.6546 50.2637V50.1796L70.3244 50.0768C70.5301 49.7652 71.3027 49.3914 71.5924 49.6811C71.4554 50.0082 71.1438 50.111 70.8541 50.3322ZM68.1311 52.1143C68.9193 52.3044 69.019 53.0739 68.3025 53.5007C68.1943 53.418 68.0797 53.3441 67.9598 53.2795C67.8383 52.887 67.6171 52.2857 68.1311 52.1143ZM68.4427 55.5912L68.3056 55.7657C68.2057 55.696 68.1017 55.6326 67.994 55.5756C68.0145 55.4803 68.027 55.3833 68.0314 55.2859C68.1269 55.2663 68.2238 55.2549 68.3212 55.2516C68.3866 55.3357 68.3866 55.3357 68.4396 55.6006L68.4427 55.5912ZM66.9005 52.0302C67.1715 52.4414 66.832 52.7841 66.6606 53.1424C66.3179 53.0739 66.3179 53.0739 66.2494 53.0085C66.1933 52.4851 66.1777 51.7903 66.8974 52.0302H66.9005ZM66.969 55.6629C66.6949 55.5071 66.6419 55.4915 66.6419 55.1644L66.9535 55.0616C67.1871 55.2672 67.0345 55.423 66.9659 55.6629H66.969ZM67.2806 55.9339C67.9816 56.1925 67.4332 56.9465 66.9223 57.0493C66.8506 56.8966 66.8506 56.8966 66.6481 56.7066C66.6481 56.4258 66.7316 56.1515 66.888 55.9183C67.0222 55.9151 67.1564 55.9203 67.2899 55.9339H67.2806ZM65.7228 54.4603C65.7602 54.2266 65.9129 54.0615 66.0624 54.0833C66.212 54.1051 66.3054 54.3201 66.268 54.5538C66.2307 54.7874 66.0749 54.9525 65.9253 54.9276C65.7758 54.9027 65.6823 54.6908 65.7228 54.4603ZM66.1154 55.8186C66.0967 55.9339 66.0219 56.018 65.9471 56.0056C65.8724 55.9931 65.8256 55.8872 65.8443 55.7719C65.863 55.6566 65.9409 55.5725 66.0157 55.585C66.0905 55.5974 66.1372 55.7003 66.1154 55.8186ZM65.5608 56.3296H65.8163C65.835 56.5196 65.8693 56.5695 65.8007 56.7253L65.5421 56.6567C65.5571 56.5484 65.5634 56.439 65.5608 56.3296ZM57.6599 59.6881C58.0213 59.5666 58.1584 59.9623 58.0026 60.2364C57.8998 60.1679 57.7814 60.0994 57.6599 60.0308V59.6881ZM55.585 61.2957C55.5456 61.0969 55.5662 60.8908 55.6442 60.7038C55.8504 60.7239 56.0432 60.8154 56.1894 60.9624C56.1202 61.0598 56.0299 61.1404 55.9253 61.1981C55.8206 61.2558 55.7043 61.2892 55.585 61.2957ZM56.8717 65.6855C56.0679 65.1527 55.9121 64.3302 55.7065 63.4392C55.7267 63.2737 55.7381 63.1073 55.7407 62.9407C55.8093 62.9594 55.8965 63.1152 55.9993 63.1993C56.2891 63.8691 57.1303 64.9128 56.8717 65.6855ZM58.0026 69.1624C57.2331 68.8352 57.043 67.6545 57.043 66.9005C57.1116 66.6263 57.1957 66.1123 57.42 65.9222C57.521 65.9579 57.6181 66.0038 57.7097 66.0593C57.8998 66.5048 57.6599 66.8164 57.6599 67.2775C57.9341 67.8414 58.4325 68.5985 58.0026 69.1624ZM57.9154 63.9532L57.9496 63.7289L58.0711 63.7476C58.0909 63.7996 58.0964 63.8558 58.0871 63.9106C58.0778 63.9654 58.054 64.0167 58.0182 64.0592L57.9154 63.9532ZM58.9248 65.1714C58.843 65.1516 58.766 65.1155 58.6985 65.0652C58.6311 65.0148 58.5745 64.9513 58.5322 64.8785C58.4481 63.9875 59.5105 64.7757 58.9092 65.1714H58.9248ZM59.442 63.9532C59.4427 63.8255 59.4687 63.6992 59.5184 63.5816C59.5681 63.464 59.6406 63.3573 59.7317 63.2678C60.1772 63.4921 59.9903 63.8691 59.6819 64.1776L59.442 63.9532ZM61.1056 67.751C60.713 67.5552 60.3449 67.3137 60.009 67.0314C59.8189 66.6357 59.7348 65.9004 60.1959 65.6792C60.333 65.9503 60.2458 66.346 60.4358 66.5329C61.034 66.5329 60.2987 65.4705 61.087 65.3521C61.2427 65.9752 61.2583 66.5983 61.4639 67.2214C61.4639 67.5859 61.4639 67.6358 61.1056 67.751ZM60.8159 63.4672C61.1056 63.8785 61.1275 63.8785 60.7598 64.2399C60.4888 64.0124 60.4078 63.5763 60.8159 63.4735V63.4672ZM60.791 62.4609C60.9312 62.3861 61.0807 62.4048 61.1306 62.4952C61.1804 62.5855 61.1025 62.7226 60.9623 62.8067C60.8221 62.8909 60.6726 62.8628 60.6227 62.7693C60.5729 62.6759 60.6508 62.5388 60.791 62.4547V62.4609ZM61.8939 64.595C61.7568 64.6667 61.6041 64.6511 61.5574 64.5576C61.5107 64.4642 61.5823 64.3333 61.7225 64.2461C61.8627 64.1589 62.0154 64.1869 62.0621 64.2804C62.1088 64.3738 62.0341 64.5265 61.8939 64.6013V64.595ZM62.2864 63.4672C62.168 63.5015 62.0278 63.5358 61.8939 63.57L61.7568 63.4174C61.6696 62.9905 61.7568 62.8161 62.1836 62.6977C62.4765 62.9095 62.4422 63.165 62.2771 63.4735L62.2864 63.4672ZM61.8783 61.8316L62.0528 61.654L62.2272 61.8316L62.0528 62.006L61.8783 61.8316ZM60.2302 62.2241C59.8333 62.6092 59.3334 62.871 58.7908 62.9781C58.1241 63.3551 58.1241 63.3551 58.0182 63.4766C57.9185 63.4423 57.8157 63.408 57.7066 63.3738C57.0555 63.4766 56.6629 63.4921 56.5757 62.7912C56.61 62.3269 56.61 62.3269 56.6785 62.1681C58.8905 60.8533 60.1585 60.0246 61.305 56.6536C61.4265 55.9152 61.5449 55.18 61.6633 54.4416C61.6976 53.6721 61.7163 52.9181 61.7319 52.1642C61.8534 51.8028 61.9063 51.7498 62.249 51.6158C62.249 51.5317 62.249 51.5286 62.1805 51.3572C62.4079 51.7685 65.3303 51.7529 65.4175 52.024C65.369 53.0611 65.2429 54.0931 65.0405 55.1114C64.5794 56.2081 64.6137 57.5415 63.6541 58.3827C62.6634 59.6507 61.7817 61.5761 60.2302 62.221V62.2241ZM64.9253 58.6133C64.8567 58.7316 64.7726 58.8687 64.6854 59.0058C64.3738 58.85 64.19 58.6943 64.3956 58.2674C64.514 58.2176 64.6355 58.1833 64.7383 58.149C64.8085 58.2994 64.8709 58.4533 64.9253 58.6101V58.6133ZM63.2803 60.872L63.0404 60.9063L63.0061 60.7349L63.2647 60.7879L63.2803 60.872ZM63.623 61.5761C63.9158 61.9874 63.623 62.3456 63.2803 62.5855C62.9033 62.5357 62.9033 62.3986 62.8005 61.9624C62.9002 61.3674 63.2304 61.5387 63.623 61.573V61.5761ZM63.4859 63.4174C63.2772 63.5233 63.0497 63.4984 62.9781 63.3613C62.9064 63.2242 63.0217 63.0248 63.2304 62.9158C63.4392 62.8067 63.6635 62.8317 63.7383 62.9687C63.813 63.1058 63.6978 63.3052 63.4859 63.4143V63.4174ZM63.8629 59.9903C63.7612 59.9584 63.657 59.9355 63.5513 59.9218C63.4485 59.5791 63.5669 59.4233 63.9127 59.3734C64.1464 59.551 63.9844 59.8065 63.8629 59.9965V59.9903ZM64.1744 60.8128L64.3302 60.71C64.7757 60.71 64.6885 60.9312 64.6885 61.2739C64.2772 61.2054 64.2772 61.2054 64.1931 61.1399C64.1954 61.0325 64.1881 60.9251 64.1713 60.819L64.1744 60.8128ZM64.9969 62.1649C64.7383 62.0964 64.7383 62.0964 64.6542 62.0123C64.6724 61.9208 64.6838 61.8281 64.6885 61.735C65.0468 61.3767 65.0997 61.7007 65.134 62.0279L64.9969 62.1649ZM65.2867 60.1617C65.2025 60.1959 65.0997 60.2302 64.9969 60.2645C64.8864 60.1753 64.8155 60.046 64.7997 59.9048C64.784 59.7636 64.8246 59.6219 64.9128 59.5105C65.0294 59.5279 65.1441 59.556 65.2555 59.5946C65.3178 59.7909 65.3926 59.9436 65.2835 60.1679L65.2867 60.1617ZM65.511 58.1054C65.4082 58.0712 65.2867 58.0369 65.1683 58.0026C65.0813 57.8953 65.0297 57.7636 65.0208 57.6258C65.0119 57.4879 65.046 57.3507 65.1184 57.2331L65.5297 57.1801C65.7478 57.4948 65.6449 57.7814 65.5079 58.1117L65.511 58.1054ZM65.7353 58.4326L65.8537 58.3796C65.9487 58.414 66.0339 58.4711 66.102 58.5458C66.1701 58.6205 66.2189 58.7107 66.2444 58.8085C66.2698 58.9063 66.2711 59.0089 66.2481 59.1073C66.2251 59.2057 66.1785 59.2971 66.1123 59.3734C66.0004 59.3402 65.8857 59.3172 65.7696 59.3049C65.6446 59.0321 65.6311 58.7213 65.7322 58.4388L65.7353 58.4326ZM66.1123 61.2365C65.9565 61.1867 65.8007 61.1524 65.7353 61.0153C65.6823 60.4327 65.7353 60.1056 66.4207 60.1056C66.8974 60.4576 66.483 61.0247 66.1092 61.2459L66.1123 61.2365ZM66.6606 57.1864L66.8818 57.2549C67.1217 57.4948 67.1933 58.093 66.7977 58.2145C66.1933 58.093 66.2961 57.5446 66.6575 57.1864H66.6606ZM67.723 59.4825L67.2089 59.8937L67.0033 59.7224C66.7291 59.0712 66.8818 58.7285 67.4987 58.7285C67.7354 58.8812 67.7199 59.227 67.7199 59.4825H67.723ZM67.7043 54.4447L67.4831 54.6005C67.3569 54.5831 67.236 54.5387 67.1285 54.4705C67.021 54.4022 66.9294 54.3116 66.86 54.2048C66.86 52.834 68.0096 53.5225 67.7012 54.4447H67.7043ZM69.0876 56.9963C69.044 57.3079 68.8757 57.5104 68.7106 57.473H68.6794C68.991 57.9341 68.6981 58.4076 68.3367 58.688C68.1568 58.6312 67.9933 58.5318 67.8601 58.3983C67.6544 57.7752 67.9099 57.6101 68.4832 57.5041V57.1926C68.209 56.9184 68.3772 56.61 68.5517 56.286C68.9443 56.2174 68.9443 56.3202 69.1 56.6443L69.0845 56.6848C69.1028 56.7878 69.1028 56.8933 69.0845 56.9963H69.0876ZM69.1966 54.9401C69.0833 54.9213 68.9688 54.9109 68.8539 54.9089C68.7395 54.6097 68.7274 54.281 68.8196 53.9743C69.5518 53.8621 69.8602 54.6161 69.1935 54.9401H69.1966ZM69.8197 55.9713C69.6994 55.903 69.5733 55.8457 69.4427 55.8C69.44 55.5897 69.5185 55.3865 69.6618 55.2327C69.8052 55.0789 70.0024 54.9864 70.2123 54.9743C70.2705 55.1597 70.2639 55.3593 70.1937 55.5405C70.1235 55.7216 69.9938 55.8736 69.826 55.9713H69.8197ZM70.2995 53.9493L69.9412 53.8995C69.8439 53.7714 69.7751 53.6239 69.7397 53.467C69.7042 53.31 69.7028 53.1473 69.7356 52.9898C70.0939 52.7654 70.3338 52.9025 70.5893 53.158C70.6329 53.6222 70.689 53.6752 70.3057 53.9493H70.2995Z" fill="#903603"/>
<path d="M43.0918 63.8689C43.7616 62.9841 44.4346 62.495 44.7461 61.065C44.8617 60.6197 44.8721 60.1537 44.7764 59.7038C44.6806 59.2539 44.4815 58.8325 44.1947 58.4729C43.6631 57.7465 42.9198 57.2024 42.0668 56.9151C41.4001 56.6409 40.6928 56.5101 40.1445 56.9151L40.2972 57.1207C41.3938 57.4323 41.8549 58.3887 41.7708 59.5353C41.7023 59.9309 41.5309 60.6475 41.1726 60.822L41.2038 61.0245C41.3623 60.8627 41.5479 60.7298 41.7521 60.6319C41.8736 60.4107 41.9951 60.2051 42.1291 60.0088C42.1665 59.8188 42.2007 59.6318 42.2506 59.4418C42.2007 58.9776 41.668 57.4042 42.6805 57.7283C45.5468 59.7814 43.3223 63.8253 41.5496 64.4453C41.5995 64.8036 41.7895 64.8908 42.0605 65.1276C43.2725 66.5046 43.5155 67.3458 43.2725 69.3086C42.9983 70.2433 42.7055 71.7044 41.5621 71.8914C41.2505 71.6857 41.4406 71.3088 41.5247 71.0003C41.5621 70.6265 41.5932 70.2495 41.6275 69.8912C41.5247 69.1528 41.1851 68.483 40.9421 67.782L39.7956 66.6324C39.5899 66.4953 39.3812 66.3613 39.1725 66.2211C39.1725 65.7102 39.1195 65.76 39.5494 65.5544C39.8807 65.5547 40.2098 65.6073 40.5246 65.7102C40.7038 65.9274 40.9137 66.1174 41.1477 66.2741C41.3054 66.6386 41.5596 66.9532 41.883 67.1838C41.9359 67.405 41.9858 67.6262 42.0356 67.8692C42.1648 68.0385 42.2485 68.238 42.2786 68.4487L42.4998 68.3989C42.3955 67.9172 42.2168 67.4547 41.9702 67.028C41.7687 66.4431 41.3991 65.9305 40.9078 65.5544L40.3938 65.4018C40.3252 65.246 40.0822 65.1432 39.914 65.0746C39.7925 64.4515 39.8797 63.4639 40.4436 63.0527C40.1881 62.8813 40.0853 62.4888 39.9825 62.2146C40.0697 61.7846 40.4623 61.632 40.805 61.4077C40.8206 61.3049 40.8362 61.2207 40.8548 61.1335C40.752 61.065 40.6648 60.9964 40.5807 60.9279C40.4093 60.2269 40.5807 59.2673 39.7769 58.9745C39.6211 59.286 39.4653 59.5976 39.3127 59.9091C39.1088 60.0501 38.8734 60.1389 38.6273 60.1677C38.269 59.8063 38.7145 59.0025 38.3874 58.5726C37.9263 58.4012 37.7362 58.934 37.3779 59.1053C37.1194 59.0866 36.8795 59.071 36.6396 59.071C35.803 58.582 35.1067 57.8856 34.6176 57.0491C34.4462 56.1923 34.306 55.3324 34.1378 54.4944V52.678C34.225 52.3883 34.3092 52.1141 34.412 51.8399L34.2593 51.5814C33.8733 51.4719 33.478 51.3978 33.0785 51.3602C32.1844 51.1327 29.963 51.5222 28.7573 51.463H27.67C27.0575 51.6802 26.4335 51.8632 25.8007 52.0113C25.0623 52.3042 24.3271 52.7497 23.5731 52.946C23.0248 52.3976 23.7258 51.9864 24.2243 51.9178C24.514 51.7808 24.8069 51.6624 25.0966 51.544C25.5194 51.5229 25.9337 51.4169 26.3148 51.2324C26.9379 51.0766 27.7012 50.8025 28.371 50.871C28.8321 50.6997 29.3306 50.9396 29.7917 51.0081C30.0316 50.7682 30.2902 50.6156 30.6142 50.8523C30.8198 50.6467 31.1968 50.7153 31.4709 50.7153C31.9165 50.5782 32.2592 50.3383 32.7545 50.3383C32.8605 50.3912 32.9633 50.4598 33.0848 50.5283C33.5622 50.5766 34.0268 50.7118 34.4556 50.9271C34.7266 51.0766 34.7952 51.1265 34.683 51.4505C34.6364 51.5971 34.5527 51.7291 34.44 51.8337C34.6046 51.8341 34.769 51.8237 34.9323 51.8026C35.1846 51.7808 35.5117 51.8306 35.6239 51.5253C35.761 51.1608 35.0725 50.7059 34.7111 50.5439C34.6269 50.4442 34.5584 50.357 34.4899 50.2728C34.4899 49.469 35.113 49.1419 34.6799 48.3724C34.4712 48.1481 34.2655 47.9269 34.0568 47.7212C33.5646 46.9206 32.8418 45.126 31.9289 44.2007C31.4377 43.658 30.9055 43.1539 30.3369 42.6928C30.1905 42.5869 30.0471 42.4965 29.9443 42.428C29.7545 42.0888 29.4592 41.8208 29.1031 41.6647L28.8601 41.618C29.3368 42.1102 29.6857 42.4934 29.8945 43.9016C29.8945 44.3098 29.9132 44.7241 29.9288 45.1478C29.8945 45.746 29.5518 46.5187 29.7387 47.0826C29.8288 47.0627 29.9206 47.0513 30.0129 47.0483C30.5612 46.2788 30.5114 44.8674 30.4428 43.9639C30.4531 43.8899 30.4853 43.8207 30.5352 43.7652C30.5852 43.7096 30.6507 43.6704 30.7232 43.6524C31.2373 43.4405 32.5925 45.8332 32.8698 46.4563C33.1481 47.0655 33.263 47.7365 33.2032 48.4035C33.0666 48.5546 32.9406 48.7149 32.8262 48.8833C32.5676 48.9861 32.3277 49.089 32.0878 49.1949C30.2813 49.5351 28.4458 49.6979 26.6076 49.6809L25.1496 49.4753C24.5265 49.2354 24.0031 49.2198 23.8317 48.5001C24.0903 47.472 24.3645 46.2538 25.2212 45.5684C25.6138 44.8674 26.1278 44.2661 26.5734 43.6181C30.6734 40.4216 28.5112 41.2503 26.0032 43.5932C25.3761 44.2067 24.856 44.9206 24.4642 45.7055C24.1713 46.0396 23.9317 46.4169 23.7538 46.824L23.4049 47.7742C23.3208 48.0577 23.3208 48.5593 23.0341 48.6092C22.7883 48.6694 22.5666 48.8031 22.3986 48.9924C22.2939 49.0872 22.2219 49.2127 22.1928 49.3509C22.1637 49.4891 22.179 49.6329 22.2366 49.7619C22.3503 49.909 22.4978 50.0265 22.6665 50.1046C22.8509 50.2002 23.0084 50.3403 23.1249 50.5122C23.2413 50.6842 23.3129 50.8825 23.3332 51.0891C23.3536 51.2428 23.3354 51.3991 23.2803 51.544C23.0622 52.058 21.9437 52.4225 22.6229 53.1578C22.7942 53.3385 23.1837 53.2793 23.4392 53.4164C23.5565 54.4063 23.8233 55.3727 24.2305 56.2827C25.9191 60.2986 29.1717 62.4327 31.9476 64.2864C32.3907 64.5694 32.7818 64.9267 33.1035 65.3426C33.3091 66.352 33.415 66.9844 32.5177 67.5857C31.9445 68.5204 32.4087 68.3615 33.1035 68.2898C34.0381 68.1995 34.493 68.2306 35.2843 67.782C35.5827 67.5899 35.8298 67.3279 36.004 67.0187C36.758 67.7727 36.5523 68.4923 36.0227 69.2463C35.9884 69.3304 35.9542 69.4176 35.9168 69.5205L36.0725 69.779C36.6956 69.8289 37.0072 69.8289 37.5618 69.4675C37.9963 69.0104 38.3296 68.4669 38.54 67.8724C38.5743 67.2929 38.5213 67.1371 38.9668 66.8785C39.2254 67.0343 39.4809 67.1901 39.7551 67.377C39.9108 67.6169 40.0666 68.0281 40.4249 68.5951C40.4747 69.0394 40.5793 69.4758 40.7365 69.8943V70.6296C40.481 72.2995 39.2285 73.122 40.6679 72.826C41.5901 72.6493 42.412 72.1322 42.9703 71.3773C43.6043 70.5725 43.9621 69.5848 43.9907 68.5607C44.0194 67.5366 43.7172 66.5305 43.1292 65.6915C43.054 65.5935 42.9873 65.4893 42.9298 65.3799C42.6182 65.1151 42.2662 64.9313 42.4562 64.464C42.5896 64.1957 42.8153 63.9844 43.0918 63.8689ZM33.873 48.8771C34.0257 48.8771 34.0443 48.9986 34.1129 49.1014C34.056 49.2311 33.9703 49.3462 33.8623 49.438C33.7544 49.5298 33.627 49.5958 33.4898 49.6311C33.3228 49.6377 33.1563 49.6543 32.9913 49.6809C33.0692 49.1014 33.3932 49.0578 33.873 48.8771ZM24.9284 50.0766L25.5982 50.1794V50.2635C25.187 50.2822 24.7944 50.3009 24.4018 50.332C24.109 50.1108 23.8006 50.0205 23.6448 49.6809C23.9563 49.3912 24.7227 49.7681 24.9284 50.0766ZM39.6242 60.7036C39.7022 60.8906 39.7228 61.0967 39.6834 61.2955C39.5641 61.289 39.4478 61.2556 39.3431 61.1979C39.2385 61.1402 39.1482 61.0596 39.079 60.9622C39.2256 60.8158 39.4181 60.7245 39.6242 60.7036ZM37.6085 59.6879V60.0306C37.4901 60.0992 37.3686 60.1677 37.2658 60.2362C37.1131 59.9621 37.2502 59.5664 37.6085 59.6879ZM29.7262 56.6565L29.4708 56.7251C29.3991 56.5693 29.4334 56.5194 29.4521 56.3294H29.7107C29.7085 56.4387 29.7137 56.548 29.7262 56.6565ZM29.206 54.0831C29.3555 54.0613 29.5175 54.2264 29.5487 54.4601C29.5798 54.6938 29.4957 54.8994 29.343 54.9274C29.1904 54.9555 29.0315 54.7841 29.0035 54.5536C28.9754 54.323 29.0564 54.1112 29.206 54.0831ZM29.3212 56.0054C29.2465 56.0054 29.1717 55.9337 29.1499 55.8185C29.1281 55.7032 29.1779 55.5972 29.2527 55.5848C29.3275 55.5723 29.4054 55.6564 29.424 55.7717C29.4427 55.887 29.3991 55.9898 29.3212 56.0054ZM28.3866 52.03C29.1063 51.7901 29.0876 52.4755 29.0377 53.0083C28.9692 53.0737 28.9692 53.0737 28.6234 53.1422C28.4427 52.7964 28.0968 52.4412 28.3741 52.03H28.3866ZM28.318 55.6627C28.2526 55.4228 28.0968 55.267 28.3367 55.0614L28.6483 55.1642C28.6296 55.4913 28.5797 55.5069 28.318 55.6627ZM28.6296 56.7064C28.424 56.8964 28.424 56.8964 28.3523 57.0491C27.8414 56.9463 27.293 56.1923 27.994 55.9337C28.1258 55.9256 28.2579 55.9256 28.3897 55.9337C28.5419 56.163 28.6251 56.4312 28.6296 56.7064ZM27.156 52.1141C27.67 52.2855 27.4457 52.8868 27.3242 53.2793C27.2053 53.3439 27.0917 53.4179 26.9846 53.5005C26.2493 53.0737 26.3522 52.3042 27.1404 52.1141H27.156ZM27.293 55.5754C27.1858 55.633 27.0818 55.6964 26.9815 55.7655L26.8413 55.591C26.8943 55.3355 26.8943 55.3355 26.9628 55.2514C27.0602 55.2545 27.1571 55.266 27.2525 55.2857C27.2528 55.3828 27.2612 55.4797 27.2775 55.5754H27.293ZM24.6885 53.1578C24.9439 52.9023 25.1838 52.7653 25.5421 52.9896C25.5745 53.1469 25.5733 53.3093 25.5384 53.4661C25.5034 53.6229 25.4357 53.7706 25.3396 53.8993L24.9813 53.9491C24.5794 53.675 24.6355 53.622 24.6729 53.1578H24.6885ZM25.458 55.9618C25.289 55.865 25.158 55.7134 25.0867 55.5322C25.0153 55.351 25.0078 55.1509 25.0655 54.9648C25.2751 54.9799 25.4708 55.075 25.6123 55.2304C25.7538 55.3858 25.8302 55.5897 25.8256 55.7998C25.693 55.8451 25.5647 55.9025 25.4424 55.9711L25.458 55.9618ZM26.4487 53.9647C26.5406 54.2713 26.5296 54.5996 26.4176 54.8994C26.3017 54.9013 26.1861 54.9117 26.0718 54.9305C25.4082 54.6159 25.7166 53.8619 26.4487 53.9647ZM27.4114 58.4043C27.2775 58.5386 27.1128 58.6381 26.9316 58.6941C26.5734 58.4043 26.2805 57.9401 26.592 57.479H26.5609C26.3958 57.5133 26.2275 57.2983 26.1839 57.0023C26.1641 56.8994 26.1641 56.7937 26.1839 56.6908V56.6503C26.3366 56.3387 26.3366 56.2235 26.7322 56.292C26.9036 56.6036 27.075 56.9151 26.8008 57.1986V57.5102C27.3616 57.613 27.6171 57.7812 27.4114 58.4043ZM28.4084 54.2046C28.339 54.3114 28.2474 54.402 28.1399 54.4703C28.0324 54.5385 27.9115 54.5829 27.7853 54.6003L27.5641 54.4445C27.2588 53.5223 28.4084 52.8338 28.4084 54.2046ZM28.2713 59.7222L28.0657 59.8935L27.5516 59.4823C27.5516 59.2268 27.5329 58.881 27.7728 58.7283C28.3897 58.7159 28.5455 59.071 28.2713 59.7222ZM28.3897 57.2547L28.6109 57.1862C28.9723 57.5444 29.0751 58.0928 28.4769 58.2143C28.0813 58.0928 28.1498 57.4946 28.3897 57.2547ZM29.5362 61.0245C29.4708 61.1615 29.315 61.1958 29.1592 61.2457C28.7854 61.0245 28.3741 60.4574 28.8477 60.1147C29.5206 60.1147 29.5892 60.4419 29.5362 61.0245ZM29.505 59.3109C29.3879 59.3229 29.2721 59.3459 29.1592 59.3795C29.093 59.3031 29.0464 59.2117 29.0234 59.1133C29.0004 59.0149 29.0017 58.9124 29.0271 58.8145C29.0526 58.7167 29.1014 58.6266 29.1695 58.5518C29.2376 58.4771 29.3228 58.4201 29.4178 58.3856L29.5362 58.4355C29.6378 58.7206 29.6267 59.0338 29.505 59.3109ZM29.7418 57.1862L30.1531 57.2391C30.2255 57.3567 30.2596 57.494 30.2507 57.6318C30.2418 57.7697 30.1902 57.9014 30.1032 58.0087C29.9848 58.0429 29.8633 58.0772 29.7605 58.1115C29.6234 57.7812 29.5206 57.4946 29.7418 57.1862ZM30.0191 59.6007C30.1294 59.5621 30.2431 59.5339 30.3587 59.5166C30.4469 59.628 30.4875 59.7696 30.4717 59.9108C30.456 60.052 30.3851 60.1813 30.2746 60.2705C30.1718 60.2362 30.069 60.202 29.9848 60.1677C29.9423 60.078 29.9231 59.9789 29.9291 59.8798C29.9351 59.7806 29.966 59.6846 30.0191 59.6007ZM30.3307 58.6099C30.3846 58.4515 30.4481 58.2965 30.5207 58.1457C30.6204 58.18 30.7419 58.2143 30.8634 58.2641C31.0659 58.6941 30.8977 58.8467 30.5706 59.0025C30.4989 58.8654 30.4117 58.7159 30.3431 58.6099H30.3307ZM30.2621 62.171L30.125 62.0339C30.1593 61.7068 30.2123 61.3827 30.5706 61.741C30.5752 61.8342 30.5867 61.9268 30.6048 62.0183C30.5332 62.1024 30.5332 62.1024 30.2746 62.171H30.2621ZM31.0659 61.146C30.9818 61.2114 30.9818 61.2114 30.5706 61.2799C30.5706 60.9372 30.4864 60.716 30.9288 60.716L31.0846 60.8188C31.0727 60.9275 31.0706 61.037 31.0784 61.146H31.0659ZM31.3432 59.3795C31.6859 59.4293 31.8043 59.5851 31.7015 59.9278C31.5958 59.9415 31.4916 59.9645 31.3899 59.9963C31.284 59.8063 31.122 59.5508 31.3557 59.3795H31.3432ZM32.2779 63.358C32.2062 63.4951 31.9663 63.52 31.77 63.4141C31.5737 63.3081 31.4585 63.1025 31.5208 62.9654C31.5831 62.8283 31.8323 62.8034 32.0255 62.9125C32.2187 63.0215 32.3682 63.2209 32.2903 63.358H32.2779ZM31.9663 62.5822C31.6547 62.3423 31.3432 61.984 31.6236 61.5728C32.0161 61.5385 32.362 61.3672 32.4461 61.9653C32.3682 62.3953 32.3682 62.5324 31.9881 62.5822H31.9663ZM31.9663 60.8687V60.7846L32.2249 60.7316L32.1906 60.903L31.9663 60.8687ZM32.9601 63.4733C32.8075 63.1617 32.7701 62.9093 33.063 62.7037C33.4742 62.8221 33.577 62.9966 33.4898 63.4234L33.3527 63.5761L32.9601 63.4733ZM33.0193 61.8283L33.1938 61.6507L33.3683 61.8283L33.1938 62.0027L33.0193 61.8283ZM33.6892 64.5637C33.6456 64.6571 33.4898 64.6727 33.3496 64.6011C33.2094 64.5294 33.1377 64.3954 33.1845 64.2895C33.2312 64.1836 33.3839 64.1805 33.5241 64.2552C33.6643 64.33 33.7608 64.4733 33.711 64.5637H33.6892ZM35.2469 67.0374C34.9118 67.3192 34.5448 67.5607 34.1534 67.7571C33.792 67.6356 33.792 67.5857 33.792 67.2243C33.9976 66.6012 34.0132 65.9781 34.169 65.355C34.9572 65.4734 34.2219 66.5358 34.8201 66.5358C35.0102 66.3489 34.9229 65.9532 35.06 65.6821C35.5367 65.9065 35.4494 66.6417 35.2594 67.0374H35.2469ZM34.6238 62.7629C34.5802 62.8564 34.4244 62.872 34.2874 62.8003C34.1503 62.7286 34.0724 62.5947 34.1222 62.4888C34.1721 62.3828 34.3185 62.3797 34.4587 62.4545C34.5989 62.5293 34.6924 62.6726 34.6425 62.766L34.6238 62.7629ZM34.4899 64.2459C34.1285 63.8845 34.1472 63.8845 34.4369 63.4733C34.8606 63.5761 34.7796 64.0122 34.5086 64.2459H34.4899ZM35.5865 64.1774C35.275 63.8658 35.088 63.4919 35.5336 63.2676C35.6246 63.3571 35.6971 63.4638 35.7469 63.5814C35.7966 63.699 35.8226 63.8253 35.8233 63.953L35.5865 64.1774ZM35.0164 62.2208C33.4586 61.579 32.5863 59.6381 31.608 58.3856C30.6484 57.5444 30.6734 56.2048 30.2216 55.1143C30.0297 54.0952 29.9141 53.0632 29.8758 52.0269C29.9599 51.7558 32.8885 51.7714 33.1159 51.3602C33.0287 51.5346 33.0287 51.5346 33.0443 51.6187C33.387 51.7558 33.4399 51.8057 33.5583 52.1671C33.577 52.921 33.5926 53.675 33.63 54.4445C33.7484 55.1829 33.8668 55.9181 33.9883 56.6565C35.1348 60.0275 36.4059 60.8562 38.6148 62.171C38.6833 62.3236 38.6833 62.3236 38.7176 62.7941C38.6304 63.4951 38.2378 63.4795 37.5867 63.3767C37.4652 63.4109 37.3655 63.4452 37.2751 63.4795C37.1723 63.358 37.1723 63.358 36.5056 62.981C35.9514 62.8774 35.44 62.613 35.0351 62.2208H35.0164ZM37.3499 63.953L37.2471 64.0559C37.2113 64.0134 37.1875 63.9621 37.1782 63.9073C37.1689 63.8525 37.1744 63.7962 37.1941 63.7443L37.3156 63.7256L37.3499 63.953ZM36.7268 64.8877C36.6845 64.9605 36.628 65.024 36.5605 65.0743C36.493 65.1246 36.4161 65.1608 36.3342 65.1806C35.7579 64.7755 36.8203 63.9873 36.7517 64.8783L36.7268 64.8877ZM37.2409 69.1715C36.8109 68.6076 37.3094 67.8505 37.5836 67.2866C37.5836 66.8255 37.3437 66.514 37.5306 66.0685C37.6236 66.0135 37.7217 65.9676 37.8235 65.9314C38.0447 66.1214 38.135 66.6355 38.2004 66.9097C38.2254 67.6543 38.0353 68.835 37.2658 69.1622L37.2409 69.1715ZM38.3718 65.6946C38.1132 64.922 38.9544 63.8783 39.2441 63.2022C39.3501 63.1181 39.4342 62.9623 39.5027 62.9436C39.5054 63.1103 39.5168 63.2767 39.537 63.4421C39.3563 64.3238 39.2005 65.1525 38.3967 65.6853L38.3718 65.6946Z" fill="#903603"/>
</g>
<defs>
<clipPath id="clip0_19_606">
<rect width="93.4652" height="93.4652" fill="white" transform="translate(0.90155 0.110107)"/>
</clipPath>
</defs>
</svg>
